<svg width="135" height="27" viewBox="0 0 135 27" fill="none" xmlns="http://www.w3.org/2000/svg">
<g clip-path="url(#clip0_1235_3655)">
<path d="M8.25873 11.2169L13.5027 6.03435L18.7488 11.2211L21.7984 8.20393L13.5027 0L5.20703 8.20182L8.25873 11.2169Z" fill="#2F2929"/>
<path d="M0 13.3477L3.05059 10.3316L6.10118 13.3477L3.05059 16.3637L0 13.3477Z" fill="#2F2929"/>
<path d="M8.25909 15.4787L13.5031 20.6633L18.7492 15.4766L21.8009 18.4895L21.7988 18.4916L13.5031 26.6956L5.20739 18.4958L5.20312 18.4916L8.25909 15.4787Z" fill="#2F2929"/>
<path d="M20.8984 13.3477L23.949 10.3316L26.9996 13.3477L23.949 16.3637L20.8984 13.3477Z" fill="#2F2929"/>
<path d="M16.5992 13.3466L13.5049 10.2852L11.2166 12.5475L10.9522 12.8068L10.4105 13.3424L10.4062 13.3466L10.4105 13.3529L13.5049 16.4102L16.5992 13.3487L16.6014 13.3466H16.5992Z" fill="#2F2929"/>
<path d="M31.7578 6.46875H38.3944C40.0407 6.46875 41.2861 6.89044 42.1306 7.73381C42.4488 8.04535 42.6996 8.41755 42.8679 8.82783C43.0361 9.23811 43.1183 9.67792 43.1095 10.1206V10.1606C43.1152 10.5232 43.0641 10.8845 42.958 11.2317C42.8636 11.5306 42.7264 11.8146 42.5507 12.0751C42.3869 12.3207 42.1888 12.5422 41.9621 12.7329C41.7407 12.9214 41.4981 13.0841 41.2392 13.2179C41.9859 13.475 42.6574 13.9094 43.1948 14.4829C43.6696 15.0171 43.907 15.755 43.907 16.6968V16.7368C43.9205 17.325 43.7911 17.9078 43.5296 18.4362C43.2762 18.9231 42.9047 19.3404 42.4484 19.6507C41.9324 19.9927 41.358 20.2391 40.753 20.3781C40.0342 20.5466 39.2973 20.6281 38.5586 20.6206H31.7578V6.46875ZM37.729 12.191C38.3032 12.2185 38.8746 12.0963 39.386 11.8368C39.5854 11.7216 39.7483 11.5536 39.8561 11.3516C39.9639 11.1496 40.0123 10.9218 39.9959 10.6941V10.654C40.0065 10.4441 39.9634 10.235 39.8705 10.0459C39.7777 9.85688 39.6382 9.69401 39.4649 9.57237C39.1109 9.32357 38.5998 9.19918 37.9316 9.19918H34.8266V12.191H37.729ZM38.5671 17.8944C39.1391 17.9261 39.7085 17.7966 40.2092 17.5212C40.4042 17.3973 40.5621 17.224 40.6663 17.0193C40.7706 16.8146 40.8175 16.586 40.802 16.3573V16.3173C40.8097 16.0999 40.7634 15.884 40.6671 15.6884C40.5708 15.4929 40.4275 15.3237 40.2497 15.1956C39.8829 14.9144 39.29 14.7739 38.4711 14.7739H34.8266V17.8944H38.5671Z" fill="#2F2929"/>
<path d="M47.8594 6.46875H51.0092V20.6248H47.8594V6.46875Z" fill="#2F2929"/>
<path d="M55.7773 6.46875H58.6819L65.3952 15.1808V6.46875H68.5045V20.6248H65.8238L58.8909 11.626V20.6248H55.7773V6.46875Z" fill="#2F2929"/>
<path d="M78.0399 6.36719H80.9402L87.0756 20.6244H83.7871L82.4777 17.4491H76.4234L75.114 20.6244H71.9023L78.0399 6.36719ZM81.3539 14.6997L79.4474 10.1076L77.5494 14.6997H81.3539Z" fill="#2F2929"/>
<path d="M90.4844 6.46875H93.3889L100.098 15.1808V6.46875H103.207V20.6248H100.527L93.5937 11.626V20.6248H90.4844V6.46875Z" fill="#2F2929"/>
<path d="M114.54 20.872C113.536 20.8805 112.541 20.6883 111.614 20.307C110.742 19.9508 109.95 19.4255 109.286 18.7621C108.622 18.0987 108.099 17.3107 107.748 16.4443C107.377 15.5381 107.19 14.569 107.196 13.5916V13.5516C107.179 11.6249 107.929 9.76901 109.283 8.38378C109.95 7.70713 110.748 7.17068 111.629 6.80667C112.588 6.414 113.618 6.21817 114.655 6.23107C115.269 6.22654 115.882 6.28091 116.485 6.39342C117.001 6.48991 117.506 6.639 117.991 6.8383C118.431 7.02144 118.849 7.25195 119.238 7.52565C119.618 7.79258 119.975 8.09019 120.304 8.41541L118.302 10.701C117.79 10.2342 117.216 9.83908 116.596 9.52655C115.987 9.23846 115.318 9.09412 114.642 9.10486C114.08 9.09894 113.524 9.2113 113.009 9.43451C112.494 9.65771 112.033 9.98664 111.657 10.3994C111.284 10.8112 110.992 11.2881 110.795 11.8058C110.59 12.3528 110.487 12.9322 110.49 13.5157V13.5558C110.488 14.1385 110.592 14.7168 110.795 15.2636C110.989 15.7831 111.278 16.2627 111.648 16.6784C112.022 17.0963 112.481 17.4301 112.997 17.657C113.512 17.884 114.07 17.999 114.634 17.994C115.352 18.0164 116.065 17.8636 116.709 17.5492C117.322 17.2187 117.889 16.8104 118.396 16.3347L120.4 18.3377C120.047 18.7175 119.664 19.07 119.255 19.3919C118.854 19.7056 118.418 19.9736 117.957 20.191C117.464 20.4201 116.946 20.5893 116.413 20.6949C115.796 20.8171 115.169 20.8765 114.54 20.872V20.872Z" fill="#2F2929"/>
<path d="M124.117 6.46875H134.893V9.23924H127.216V12.1109H133.976V14.8814H127.226V17.8543H135V20.6248H124.124L124.117 6.46875Z" fill="#2F2929"/>
</g>
<defs>
<clipPath id="clip0_1235_3655">
<rect width="135" height="26.6949" fill="white"/>
</clipPath>
</defs>
</svg>
