<svg width="1323" height="351" viewBox="0 0 1323 351" fill="none" xmlns="http://www.w3.org/2000/svg">
<g id="location_bg">
<g id="Group 3">
<path id="Path" d="M1282.74 154.072L1276.83 150.612L1279.89 157.63L1272.69 155.042L1275.75 162.06L1268.54 159.479L1272.39 165.147L1266 167.612L1273.4 169.587L1266.88 173.613L1274.28 175.593L1267.77 179.618L1274.6 180.139L1272.54 186.675L1278.7 182.121L1277.79 189.726L1283.94 185.173L1283.03 192.778L1287.7 187.761L1291.52 193.446L1291.8 185.792L1297.18 191.249L1297.46 183.598L1302.84 189.051L1301.82 182.276L1308.65 182.828L1302.84 177.836L1310.46 177.038L1304.65 172.045L1312.27 171.243L1306.34 167.808L1311.03 162.816L1303.51 164.243L1307.63 157.792L1300.11 159.219L1304.23 152.764L1297.85 155.257L1296.87 148.478L1293.29 155.25L1290.82 148.004L1287.24 154.775L1282.71 148L1282.74 154.072Z" fill="#FFD600"/>
<path id="Path_2" d="M654.891 164.426L647.237 153.966L634.896 150L622.584 154.047L615 164.559L615.042 177.522L622.696 187.982L635.033 191.948L647.349 187.901L654.933 177.389L654.891 164.426Z" fill="#FFD600"/>
<path id="Rectangle" d="M667.566 220.064L692.86 204.556L700.614 217.201L675.32 232.71L667.566 220.064Z" fill="white"/>
<path id="Rectangle_2" d="M645 4.44922L659.151 -0.000814685L668.052 28.3048L653.901 32.7548L645 4.44922Z" fill="#15F8FF"/>
<path id="Path_3" d="M1289.34 286L1262.6 298.871L1256 327.798L1274.5 351H1304.17L1322.67 327.798L1316.07 298.871L1289.34 286Z" fill="#FF4B27"/>
<path id="Path_4" d="M257.523 258L223.564 270.158L214 296.967L261.324 323L281.925 272.651L257.523 258Z" fill="#009047"/>
<path id="Path_5" d="M22.7254 59L5.97906 62.9237L0 75.1054L21.0095 90L33.4927 67.2597L22.7254 59Z" fill="#60269E"/>
</g>
</g>
</svg>
