<svg width="329" height="550" viewBox="0 0 329 550" fill="none" xmlns="http://www.w3.org/2000/svg">
<path d="M172.245 304.417C163.699 305.393 157.562 313.137 158.525 321.721C159.497 330.304 167.209 336.467 175.756 335.499L220.201 330.522C228.563 329.586 234.668 322.148 233.993 313.726C233.286 304.925 225.479 298.455 216.747 299.431L172.245 304.417Z" fill="#FFD600"/>
<path d="M256.126 270.89C249.25 266.308 239.972 268.187 235.401 275.093L207.046 307.192C202.587 313.944 204.258 323.027 210.829 327.722C217.713 332.643 227.28 330.869 231.955 323.794L260.311 291.695C264.881 284.797 263.01 275.48 256.126 270.89Z" fill="#82665A"/>
<path d="M230.932 279.242L206.416 307.606C201.821 314.56 203.54 323.926 210.312 328.766C217.405 333.84 227.269 332.009 232.089 324.716L252.998 300.426L230.932 279.242Z" fill="#FFD600"/>
<path d="M150.886 409.117H95.6046C84.0535 409.117 74.3419 400.429 73.0004 388.909L65.5781 324.961C65.5781 311.699 76.2858 300.938 89.4997 300.938H154.549C167.755 300.938 178.471 311.691 178.471 324.961L173.579 388.038C172.647 399.937 162.767 409.117 150.886 409.117Z" fill="#FFD600"/>
<path d="M227.315 195.363L227.112 195.649L227.132 195.999L229.053 229.424L198.701 243.281L198.38 243.428L198.222 243.744L183.266 273.672L150.092 270.462L149.74 270.428L149.446 270.623L121.583 288.985L94.4365 269.572L94.1495 269.366L93.7972 269.387L60.5201 271.307L46.7219 240.826L46.5762 240.504L46.2607 240.345L16.4594 225.334L19.6475 192.003L19.6809 191.655L19.4893 191.361L1.20949 163.374L20.5442 136.106L20.7468 135.82L20.7268 135.47L18.8139 102.045L49.1582 88.1877L49.4795 88.041L49.6373 87.7251L64.5925 57.7976L97.7749 61.0067L98.1265 61.0407L98.4215 60.8463L126.284 42.4843L153.43 61.8977L153.718 62.1029L154.07 62.0826L187.347 60.1619L201.145 90.6431L201.291 90.9648L201.606 91.1238L231.407 106.135L228.211 139.465L228.178 139.814L228.37 140.108L246.657 168.095L227.315 195.363Z" fill="#163029" stroke="white" stroke-width="2"/>
<path d="M122.717 316.495C111.977 316.495 103.27 307.751 103.27 296.965V270.061C103.27 268.512 104.523 267.254 106.065 267.254H139.369C140.911 267.254 142.164 268.512 142.164 270.061V296.965C142.164 307.751 133.457 316.495 122.717 316.495Z" fill="#664E3A"/>
<path d="M77.7591 317.392C69.9674 317.392 65.8867 299.168 65.8867 281.17C65.8867 263.173 69.9674 244.949 77.7591 244.949C85.5509 244.949 89.6316 263.173 89.6316 281.17C89.6316 299.168 85.559 317.392 77.7591 317.392ZM77.7591 248.612C74.4014 248.612 69.5336 261.293 69.5336 281.17C69.5336 301.048 74.4095 313.729 77.7591 313.729C81.1088 313.729 85.9847 301.048 85.9847 281.17C85.9927 261.293 81.1168 248.612 77.7591 248.612Z" fill="#FCF1D9"/>
<path d="M166.915 318.333C159.124 318.333 155.043 300.11 155.043 282.112C155.043 264.114 159.124 245.891 166.915 245.891C174.707 245.891 178.788 264.114 178.788 282.112C178.788 300.11 174.707 318.333 166.915 318.333ZM166.915 249.553C163.558 249.553 158.69 262.235 158.69 282.112C158.69 301.989 163.566 314.671 166.915 314.671C170.265 314.671 175.141 301.989 175.141 282.112C175.141 262.235 170.273 249.553 166.915 249.553Z" fill="#FCF1D9"/>
<path d="M174.712 257.676L150.06 282.394C144.927 287.541 137.93 290.372 130.677 290.227L112.932 289.888C105.446 289.743 98.369 286.452 93.4128 280.821L71.2423 255.587C66.8163 250.553 64.4386 244.035 64.5591 237.323L65.2097 203.304C65.6194 181.805 83.3075 164.711 104.707 165.123L145.176 165.905C166.583 166.316 183.605 184.08 183.195 205.571L182.552 239.203C182.416 246.148 179.612 252.771 174.712 257.676Z" fill="#82665A"/>
<path d="M120.459 267.523L110.402 263.425L111.358 261.053L120.781 264.893L132.83 263.199L138.164 258.076L139.923 259.932L133.995 265.619L120.459 267.523Z" fill="#163029"/>
<path d="M89.8455 247.531C104.987 247.531 117.261 235.204 117.261 219.998C117.261 204.792 104.987 192.465 89.8455 192.465C74.7042 192.465 62.4297 204.792 62.4297 219.998C62.4297 235.204 74.7042 247.531 89.8455 247.531Z" fill="#163029"/>
<path d="M157.201 248.832C172.342 248.832 184.617 236.505 184.617 221.299C184.617 206.093 172.342 193.766 157.201 193.766C142.06 193.766 129.785 206.093 129.785 221.299C129.785 236.505 142.06 248.832 157.201 248.832Z" fill="#163029"/>
<path d="M130.949 220.992C124.523 215.708 115.35 220.79 115.253 220.847L113.285 217.337C113.759 217.071 124.965 210.868 133.488 217.878L130.949 220.992Z" fill="#163029"/>
<path d="M147.654 247.109L179.56 205.362C177.793 202.869 175.624 200.683 173.142 198.9L141.469 243.85C143.364 245.189 145.445 246.286 147.654 247.109Z" fill="#FCF1D9"/>
<path d="M82.8409 246.614L113.639 206.31C112.04 203.511 109.968 201.018 107.518 198.953L75.9648 243.742C78.0935 244.992 80.3989 245.968 82.8409 246.614Z" fill="#FCF1D9"/>
<path d="M199.542 162.795L194.811 169.458L195.277 177.622L187.863 181.019L184.208 188.327L176.095 187.545L169.283 192.038L162.648 187.287L154.511 187.763L151.137 180.309L143.851 176.638L144.63 168.49L140.164 161.649L144.887 154.986L144.421 146.814L151.836 143.426L155.499 136.109L163.604 136.892L170.415 132.406L177.059 137.15L185.188 136.682L188.561 144.136L195.847 147.806L195.068 155.946L199.542 162.795Z" fill="#FFD600"/>
<path d="M183.597 162.489L181.412 165.571L181.629 169.354L178.191 170.919L176.504 174.307L172.745 173.944L169.596 176.017L166.52 173.823L162.76 174.041L161.194 170.596L157.828 168.894L158.182 165.119L156.117 161.956L158.302 158.875L158.085 155.091L161.523 153.518L163.21 150.138L166.969 150.501L170.118 148.42L173.195 150.614L176.962 150.396L178.521 153.849L181.894 155.551L181.533 159.319L183.597 162.489Z" fill="#FCF1D9"/>
<path d="M121.768 269.103L121.719 271.668L129.806 271.823L129.855 269.258L121.768 269.103Z" fill="#163029"/>
<path d="M133.885 261.745L131.523 264.027L140.083 272.963L142.445 270.681L133.885 261.745Z" fill="#FCF1D9"/>
<path d="M214.496 259.49L237.293 268.299L273.882 240.798L250.555 232.643L214.496 259.49Z" fill="#009147"/>
<path d="M17.625 193.779L40.422 202.588L77.0193 175.088L53.6921 166.924L17.625 193.779Z" fill="#009147"/>
<path d="M128.215 285.057L151.012 293.866L187.601 266.365L164.274 258.201L128.215 285.057Z" fill="#009147"/>
<path d="M205.941 310.137L201.691 334.298L235.566 365.114L239.076 340.558L205.941 310.137Z" fill="#009147"/>
<path d="M268.789 209.816L291.586 218.617L328.183 191.117L304.856 182.961L268.789 209.816Z" fill="#009147"/>
<path d="M229.532 173.224L237.99 150.208L210.116 113.834L202.309 137.374L229.532 173.224Z" fill="#009147"/>
<path d="M88.0391 130.148L112.451 129.39L135.585 89.8047L110.924 91.3616L88.0391 130.148Z" fill="#009147"/>
<path d="M281.224 273.16L273.473 296.426L302.431 331.929L309.524 308.163L281.224 273.16Z" fill="#009147"/>
<path d="M252.461 210.417L274.069 198.977L277.547 153.213L256.076 165.475L252.461 210.417Z" fill="#009147"/>
<g opacity="0.22">
<g opacity="0.22">
<path opacity="0.22" d="M92.535 343.971C85.5224 339.776 81.0482 333.935 85.2252 326.893C89.4023 319.85 98.4713 317.543 105.484 321.738L141.993 343.487C148.861 347.577 151.247 356.41 147.391 363.429C143.358 370.762 134.089 373.295 126.907 369.019L92.535 343.971Z" fill="black"/>
</g>
</g>
<g opacity="0.22">
<g opacity="0.22">
<path opacity="0.22" d="M160.06 322.806C165.627 317.925 174.086 318.506 178.937 324.105C183.797 329.695 183.219 338.19 177.644 343.062L148.726 368.482C143.288 373.266 135.046 372.846 130.122 367.53C124.973 361.98 125.415 353.251 131.102 348.258L160.06 322.806Z" fill="black"/>
</g>
</g>
<path d="M87.6265 342.249C80.5335 338.005 78.2121 328.793 82.4373 321.662C86.6625 314.538 95.836 312.207 102.929 316.45L139.856 338.449C146.804 342.588 149.222 351.518 145.318 358.617C141.237 366.039 131.855 368.596 124.601 364.272L87.6265 342.249Z" fill="#FFD600"/>
<path d="M193.775 311.227C198.209 318.221 196.16 327.499 189.196 331.96L156.703 359.823C149.9 364.18 140.887 362.324 136.332 355.637C131.561 348.634 133.513 339.059 140.638 334.493L173.13 306.629C180.095 302.176 189.341 304.233 193.775 311.227Z" fill="#82665A"/>
<path d="M184.999 336.388L146.41 366.672C139.397 371.157 130.111 369.245 125.412 362.356C120.496 355.136 122.504 345.27 129.854 340.567L164.323 313.816L184.999 336.388Z" fill="#FFD600"/>
<path d="M162.247 317.306C164.491 316.414 165.575 313.824 164.668 311.521C163.761 309.217 161.206 308.073 158.962 308.964C156.718 309.855 155.634 312.445 156.541 314.749C157.448 317.053 160.003 318.197 162.247 317.306Z" fill="#FCF1D9"/>
<path d="M168.271 323.958C170.515 323.067 171.599 320.477 170.692 318.173C169.784 315.87 167.23 314.725 164.985 315.616C162.741 316.508 161.657 319.098 162.565 321.401C163.472 323.705 166.027 324.85 168.271 323.958Z" fill="#FCF1D9"/>
<path d="M174.286 330.612C176.531 329.721 177.614 327.131 176.707 324.827C175.8 322.524 173.245 321.379 171.001 322.271C168.757 323.162 167.673 325.752 168.58 328.056C169.487 330.359 172.042 331.504 174.286 330.612Z" fill="#FCF1D9"/>
<path d="M180.56 336.357C182.804 335.465 183.888 332.875 182.981 330.572C182.073 328.268 179.519 327.123 177.274 328.015C175.03 328.906 173.946 331.496 174.854 333.8C175.761 336.103 178.316 337.248 180.56 336.357Z" fill="#FCF1D9"/>
<path d="M186.747 341.941C188.991 341.049 190.075 338.459 189.168 336.156C188.261 333.852 185.706 332.707 183.462 333.599C181.218 334.49 180.134 337.08 181.041 339.384C181.948 341.687 184.503 342.832 186.747 341.941Z" fill="#FCF1D9"/>
<path d="M224.836 185.397L212.94 185.373L203.301 192.375L199.605 203.734L203.26 215.1L212.876 222.143L224.772 222.159L234.403 215.157L238.107 203.798L234.444 192.432L224.836 185.397Z" fill="#FFD600"/>
<path d="M34.5158 266.135L22.6193 266.119L12.988 273.121L9.29297 284.472L12.9479 295.846L22.5551 302.881L34.4516 302.905L44.0909 295.903L47.786 284.544L44.1311 273.178L34.5158 266.135Z" fill="#FFD600"/>
<path d="M217.373 380.623L205.476 380.663L195.877 387.722L192.238 399.097L195.957 410.447L205.605 417.433L217.501 417.393L227.1 410.334L230.731 398.96L227.02 387.609L217.373 380.623Z" fill="#FFD600"/>
<path d="M274.063 96.4226L262.166 96.3984L252.527 103.409L248.832 114.759L252.487 126.126L262.102 133.168L273.991 133.192L283.63 126.182L287.325 114.832L283.67 103.457L274.063 96.4226Z" fill="#FFD600"/>
<path d="M177.262 0.0242003L165.373 0L155.734 7.0103L152.039 18.3607L155.694 29.7272L165.309 36.7698L177.198 36.794L186.837 29.7837L190.532 18.4333L186.877 7.0587L177.262 0.0242003Z" fill="#FFD600"/>
<path d="M263.017 114.059L263.668 112.123C265.741 105.984 267.628 104.33 270.745 105.387C273.283 106.25 273.902 108.105 272.866 112.268L269.829 111.631C270.697 108.807 270.624 108.097 269.893 107.847C268.93 107.517 268.375 108.243 266.962 112.437L265.829 115.801C264.415 120.004 264.439 120.924 265.379 121.239C266.118 121.489 266.632 120.956 267.741 118.092L270.536 119.359C268.849 123.441 267.082 124.57 264.495 123.691C261.395 122.642 260.929 120.246 263.017 114.059Z" fill="#009845"/>
<path d="M268.788 107.478L270.186 103.291L268.651 102.791L267.262 106.954L268.788 107.478Z" fill="#009845"/>
<path d="M272.112 107.671L273.237 104.307L271.703 103.799L270.586 107.147L272.112 107.671Z" fill="#009845"/>
<path d="M262.603 121.111L261.422 124.645L262.956 125.145L264.129 121.636L262.603 121.111Z" fill="#009845"/>
<path d="M265.605 122.268L264.473 125.664L265.999 126.164L267.131 122.784L265.605 122.268Z" fill="#009845"/>
<path d="M23.8948 285.01L24.5455 283.074C26.6179 276.935 28.5056 275.281 31.6223 276.338C34.1607 277.201 34.7792 279.057 33.743 283.219L30.7066 282.582C31.5741 279.758 31.5018 279.049 30.7708 278.798C29.8069 278.468 29.2527 279.194 27.8389 283.389L26.7063 286.753C25.2925 290.956 25.3166 291.875 26.2564 292.19C26.9955 292.44 27.5096 291.907 28.6181 289.044L31.4135 290.31C29.7266 294.392 27.9594 295.522 25.3729 294.642C22.2642 293.602 21.8063 291.198 23.8948 285.01Z" fill="#009845"/>
<path d="M29.663 278.427L31.0607 274.24L29.5264 273.74L28.1367 277.911L29.663 278.427Z" fill="#009845"/>
<path d="M32.9872 278.624L34.1117 275.26L32.5775 274.76L31.4609 278.108L32.9872 278.624Z" fill="#009845"/>
<path d="M23.4777 292.072L22.2969 295.598L23.8311 296.098L25.0039 292.589L23.4777 292.072Z" fill="#009845"/>
<path d="M26.4766 293.217L25.3359 296.613L26.8702 297.121L28.0028 293.741L26.4766 293.217Z" fill="#009845"/>
<path d="M166.214 21.3897L165.427 19.51C162.928 13.5404 163.242 11.0396 166.278 9.75692C168.744 8.71627 170.431 9.69237 172.407 13.5L169.716 15.0489C168.503 12.3545 167.981 11.8705 167.266 12.1771C166.326 12.5723 166.391 13.4839 168.102 17.5659L169.475 20.833C171.186 24.923 171.813 25.5926 172.728 25.2054C173.443 24.9069 173.483 24.1567 172.423 21.2848L175.347 20.3651C176.777 24.5439 176.199 26.5687 173.684 27.6255C170.664 28.9001 168.736 27.4077 166.214 21.3897Z" fill="#009845"/>
<path d="M166.181 12.6244L164.47 8.55859L162.992 9.20398L164.703 13.2536L166.181 12.6244Z" fill="#009845"/>
<path d="M168.797 10.5484L167.423 7.28125L165.945 7.92661L167.311 11.1776L168.797 10.5484Z" fill="#009845"/>
<path d="M170.559 26.9515L172.004 30.38L173.483 29.7346L172.045 26.3223L170.559 26.9515Z" fill="#009845"/>
<path d="M173.562 25.8128L174.96 29.1123L176.438 28.4669L175.049 25.1836L173.562 25.8128Z" fill="#009845"/>
<path d="M214.823 207.384L214.036 205.504C211.538 199.535 211.851 197.034 214.887 195.751C217.354 194.71 219.04 195.687 221.016 199.494L218.325 201.043C217.112 198.349 216.59 197.865 215.875 198.171C214.936 198.566 215 199.478 216.711 203.56L218.084 206.827C219.795 210.917 220.422 211.587 221.338 211.2C222.053 210.901 222.093 210.151 221.032 207.279L223.956 206.359C225.386 210.538 224.808 212.563 222.294 213.62C219.273 214.894 217.345 213.41 214.823 207.384Z" fill="#009845"/>
<path d="M214.795 198.609L213.076 194.543L211.598 195.188L213.309 199.238L214.795 198.609Z" fill="#009845"/>
<path d="M217.402 196.548L216.029 193.281L214.551 193.919L215.924 197.17L217.402 196.548Z" fill="#009845"/>
<path d="M219.164 212.94L220.61 216.368L222.088 215.723L220.65 212.311L219.164 212.94Z" fill="#009845"/>
<path d="M222.168 211.801L223.566 215.101L225.044 214.455L223.654 211.172L222.168 211.801Z" fill="#009845"/>
<path d="M208.983 401.265L208.196 399.385C205.698 393.415 206.011 390.915 209.048 389.632C211.514 388.591 213.201 389.567 215.177 393.375L212.486 394.924C211.273 392.23 210.751 391.746 210.036 392.052C209.096 392.447 209.16 393.359 210.871 397.441L212.245 400.708C213.956 404.798 214.582 405.468 215.498 405.08C216.213 404.782 216.253 404.032 215.193 401.16L218.117 400.24C219.546 404.419 218.968 406.444 216.454 407.501C213.434 408.775 211.506 407.291 208.983 401.265Z" fill="#009845"/>
<path d="M208.947 392.492L207.228 388.426L205.758 389.071L207.461 393.121L208.947 392.492Z" fill="#009845"/>
<path d="M211.563 390.423L210.181 387.164L208.703 387.801L210.077 391.052L211.563 390.423Z" fill="#009845"/>
<path d="M213.316 406.823L214.77 410.251L216.248 409.606L214.802 406.193L213.316 406.823Z" fill="#009845"/>
<path d="M216.328 405.684L217.718 408.983L219.196 408.338L217.814 405.055L216.328 405.684Z" fill="#009845"/>
<path d="M207.406 453.482L48.9922 355.346L140.842 329.783L289.225 355.346L207.406 453.482Z" fill="#FF4B27"/>
<path d="M289.23 513.018L206.672 549.952V392.278L289.23 355.344V513.018Z" fill="#D31E00"/>
<path d="M206.667 549.998L48.9922 513.018V355.344L206.667 392.324V549.998Z" fill="#FF4B27"/>
<path d="M237.172 536.552L259.823 526.66V367.553L110.145 336.859L81.8555 345.365L235.277 378.416L237.172 536.552Z" fill="#FFD600"/>
<path d="M138.49 535.167V379.851L239.03 346.337L202.235 340.189L107.797 371.345V527.587L138.49 535.167Z" fill="#FFD600"/>
<path d="M165.758 353.501L180.273 347.492C180.273 347.492 241.891 307.831 261.722 326.228C281.552 344.626 236.252 373.655 219.241 373.655C202.23 373.655 161.182 363.763 161.182 363.763C161.182 363.763 88.2384 353.131 79.733 323.409C71.2275 293.686 98.8702 296.505 117.268 306.398C135.666 316.29 155.496 341.806 158.362 345.366C161.136 348.925 165.758 353.501 165.758 353.501Z" fill="#FFD600"/>
<path d="M171.632 360.757C170.292 359.925 170.615 357.891 172.141 357.521C186.008 354.193 232.464 343.607 239.075 349.616C246.887 356.689 232.603 371.111 220.169 371.805C208.566 372.452 188.134 371.065 171.632 360.757Z" fill="#B79400"/>
<path d="M156.754 354.982C156.754 354.982 101.977 308.572 93.3328 316.569C84.6887 324.566 92.4083 338.896 102.948 344.443C113.487 349.944 138.033 357.802 149.358 358.911C160.683 360.021 156.754 354.982 156.754 354.982Z" fill="#B79400"/>
<path d="M203.068 255.802L198.553 262.161L198.998 269.952L191.922 273.193L188.434 280.168L180.692 279.421L174.191 283.709L167.859 279.174L160.094 279.629L156.874 272.515L149.921 269.012L150.665 261.237L146.402 254.708L150.91 248.349L150.465 240.551L157.541 237.317L161.036 230.334L168.771 231.081L175.272 226.801L181.612 231.328L189.369 230.881L192.589 237.995L199.542 241.497L198.798 249.265L203.068 255.802Z" fill="#FFD600"/>
<path d="M187.85 255.506L185.765 258.447L185.972 262.058L182.691 263.551L181.081 266.785L177.493 266.438L174.488 268.417L171.552 266.323L167.965 266.531L166.47 263.244L163.258 261.619L163.595 258.016L161.625 254.998L163.71 252.057L163.503 248.447L166.784 246.946L168.394 243.72L171.982 244.066L174.987 242.08L177.923 244.174L181.518 243.966L183.005 247.261L186.225 248.886L185.88 252.481L187.85 255.506Z" fill="#FCF1D9"/>
<path d="M217.328 348.086L239.084 356.493L274.002 330.248L251.74 322.465L217.328 348.086Z" fill="#009147"/>
<path d="M29.4453 285.375L51.201 293.782L86.1267 267.537L63.865 259.746L29.4453 285.375Z" fill="#009147"/>
<path d="M134.984 372.478L156.74 380.885L191.658 354.641L169.396 346.85L134.984 372.478Z" fill="#009147"/>
<path d="M209.157 396.42L205.102 419.477L237.428 448.886L240.778 425.451L209.157 396.42Z" fill="#009147"/>
<path d="M269.148 300.678L290.904 309.077L325.83 282.832L303.568 275.049L269.148 300.678Z" fill="#009147"/>
<path d="M231.683 265.751L239.755 243.787L213.154 209.074L205.703 231.539L231.683 265.751Z" fill="#009147"/>
<path d="M96.6484 224.641L119.945 223.918L142.023 186.141L118.488 187.626L96.6484 224.641Z" fill="#009147"/>
<path d="M281.019 361.123L273.621 383.326L301.256 417.207L308.025 394.527L281.019 361.123Z" fill="#009147"/>
<path d="M253.57 301.247L274.191 290.33L277.511 246.656L257.02 258.358L253.57 301.247Z" fill="#009147"/>
<g opacity="0.22">
<g opacity="0.22">
<path opacity="0.22" d="M165.38 408.5C170.693 403.843 178.765 404.397 183.395 409.74C188.033 415.075 187.481 423.182 182.161 427.832L154.564 452.09C149.374 456.655 141.509 456.255 136.81 451.182C131.896 445.885 132.318 437.555 137.745 432.79L165.38 408.5Z" fill="black"/>
</g>
</g>
<path d="M227.215 277.373L215.862 277.35L206.663 284.032L203.137 294.872L206.625 305.719L215.801 312.44L227.154 312.455L236.345 305.773L239.879 294.933L236.384 284.086L227.215 277.373Z" fill="#FFD600"/>
<path d="M45.5864 354.426L34.2333 354.41L25.0419 361.093L21.5156 371.925L25.0036 382.78L34.172 389.493L45.5251 389.516L54.7241 382.833L58.2504 371.994L54.7624 361.146L45.5864 354.426Z" fill="#FFD600"/>
<path d="M220.076 463.689L208.723 463.728L199.562 470.464L196.09 481.319L199.639 492.151L208.846 498.818L220.199 498.78L229.36 492.043L232.825 481.188L229.283 470.356L220.076 463.689Z" fill="#FFD600"/>
<path d="M274.192 192.464L262.839 192.441L253.64 199.132L250.113 209.963L253.601 220.811L262.777 227.532L274.123 227.555L283.322 220.865L286.848 210.033L283.36 199.178L274.192 192.464Z" fill="#FFD600"/>
<path d="M181.813 100.47L170.467 100.447L161.268 107.137L157.742 117.969L161.23 128.817L170.406 135.538L181.752 135.561L190.951 128.871L194.477 118.039L190.989 107.184L181.813 100.47Z" fill="#FFD600"/>
<path d="M263.655 209.298L264.275 207.45C266.253 201.591 268.055 200.013 271.029 201.022C273.451 201.845 274.042 203.616 273.053 207.589L270.155 206.98C270.983 204.286 270.914 203.608 270.216 203.37C269.297 203.054 268.768 203.747 267.418 207.75L266.338 210.961C264.988 214.972 265.011 215.849 265.908 216.149C266.614 216.388 267.104 215.88 268.162 213.147L270.83 214.356C269.22 218.251 267.533 219.329 265.065 218.49C262.106 217.489 261.661 215.203 263.655 209.298Z" fill="#009845"/>
<path d="M269.16 203.016L270.493 199.02L269.029 198.543L267.703 202.515L269.16 203.016Z" fill="#009845"/>
<path d="M272.332 203.203L273.405 199.993L271.941 199.508L270.875 202.703L272.332 203.203Z" fill="#009845"/>
<path d="M263.256 216.029L262.129 219.401L263.593 219.879L264.712 216.53L263.256 216.029Z" fill="#009845"/>
<path d="M266.12 217.125L265.039 220.366L266.496 220.843L267.576 217.618L266.12 217.125Z" fill="#009845"/>
<path d="M35.4458 372.436L36.0668 370.589C38.0445 364.73 39.846 363.152 42.8204 364.16C45.2428 364.984 45.8331 366.755 44.8442 370.727L41.9465 370.119C42.7744 367.425 42.7054 366.747 42.0078 366.508C41.0879 366.193 40.559 366.886 39.2098 370.889L38.1289 374.099C36.7797 378.11 36.8027 378.988 37.6996 379.288C38.4048 379.527 38.8955 379.019 39.9533 376.286L42.6211 377.494C41.0112 381.39 39.3248 382.468 36.8564 381.629C33.8897 380.635 33.4527 378.341 35.4458 372.436Z" fill="#009845"/>
<path d="M40.9487 366.156L42.2826 362.161L40.8184 361.684L39.4922 365.664L40.9487 366.156Z" fill="#009845"/>
<path d="M44.1206 366.344L45.1938 363.134L43.7296 362.656L42.6641 365.851L44.1206 366.344Z" fill="#009845"/>
<path d="M35.0449 379.174L33.918 382.538L35.3821 383.015L36.5014 379.667L35.0449 379.174Z" fill="#009845"/>
<path d="M37.9167 380.266L36.8281 383.507L38.2923 383.992L39.3732 380.766L37.9167 380.266Z" fill="#009845"/>
<path d="M171.262 120.87L170.51 119.076C168.126 113.379 168.425 110.992 171.323 109.768C173.676 108.775 175.286 109.707 177.172 113.341L174.604 114.819C173.446 112.247 172.948 111.785 172.266 112.078C171.369 112.455 171.43 113.325 173.063 117.221L174.374 120.339C176.007 124.242 176.605 124.881 177.479 124.511C178.161 124.226 178.199 123.51 177.187 120.77L179.978 119.892C181.342 123.88 180.79 125.812 178.391 126.821C175.509 128.037 173.669 126.613 171.262 120.87Z" fill="#009845"/>
<path d="M171.235 112.501L169.602 108.621L168.191 109.237L169.824 113.102L171.235 112.501Z" fill="#009845"/>
<path d="M173.737 110.524L172.426 107.406L171.016 108.022L172.319 111.125L173.737 110.524Z" fill="#009845"/>
<path d="M175.414 126.177L176.794 129.449L178.204 128.833L176.832 125.576L175.414 126.177Z" fill="#009845"/>
<path d="M178.277 125.087L179.611 128.236L181.022 127.62L179.696 124.486L178.277 125.087Z" fill="#009845"/>
<path d="M217.656 298.354L216.905 296.56C214.521 290.863 214.82 288.477 217.717 287.253C220.071 286.26 221.681 287.191 223.567 290.825L220.998 292.303C219.841 289.732 219.343 289.27 218.66 289.562C217.763 289.94 217.825 290.81 219.458 294.705L220.768 297.823C222.401 301.726 222.999 302.365 223.873 301.996C224.555 301.711 224.594 300.995 223.582 298.254L226.372 297.376C227.737 301.364 227.185 303.297 224.785 304.305C221.903 305.522 220.063 304.105 217.656 298.354Z" fill="#009845"/>
<path d="M217.633 289.986L215.993 286.105L214.582 286.721L216.215 290.586L217.633 289.986Z" fill="#009845"/>
<path d="M220.128 288.014L218.817 284.896L217.406 285.505L218.717 288.607L220.128 288.014Z" fill="#009845"/>
<path d="M221.805 303.657L223.185 306.929L224.595 306.313L223.223 303.057L221.805 303.657Z" fill="#009845"/>
<path d="M224.668 302.571L226.002 305.72L227.412 305.104L226.086 301.971L224.668 302.571Z" fill="#009845"/>
<path d="M212.082 483.382L211.331 481.588C208.947 475.891 209.246 473.504 212.143 472.28C214.497 471.287 216.107 472.219 217.992 475.852L215.424 477.33C214.267 474.759 213.768 474.297 213.086 474.59C212.189 474.967 212.251 475.837 213.883 479.732L215.194 482.85C216.827 486.754 217.425 487.392 218.299 487.023C218.981 486.738 219.02 486.022 218.008 483.281L220.798 482.404C222.163 486.392 221.611 488.324 219.211 489.333C216.329 490.549 214.489 489.132 212.082 483.382Z" fill="#009845"/>
<path d="M212.055 475.011L210.415 471.131L209.012 471.747L210.637 475.611L212.055 475.011Z" fill="#009845"/>
<path d="M214.557 473.032L213.239 469.922L211.828 470.53L213.139 473.633L214.557 473.032Z" fill="#009845"/>
<path d="M216.219 488.683L217.606 491.954L219.017 491.339L217.637 488.082L216.219 488.683Z" fill="#009845"/>
<path d="M219.098 487.597L220.424 490.745L221.834 490.129L220.516 486.996L219.098 487.597Z" fill="#009845"/>
</svg>
