<svg width="920" height="513" viewBox="0 0 920 513" fill="none" xmlns="http://www.w3.org/2000/svg">
<path d="M885.026 193.06L854.815 230.621V278.797L809.854 296.148L785.767 337.893L738.102 330.544L696.356 354.581L658.796 324.37H610.62L593.269 279.409L551.473 255.321L558.873 207.707L534.836 165.911L565.048 128.351V80.1749L610.008 62.8241L634.096 21.0786L681.71 28.4271L723.506 4.39062L761.016 34.6025H809.242L826.593 79.5625L868.338 103.651L860.939 151.265L885.026 193.06Z" fill="#163029"/>
<path d="M748.473 523.008H665.391C648.039 523.008 633.444 509.995 631.453 492.796L620.328 397.109C620.328 377.257 636.404 361.182 656.256 361.182H753.985C773.837 361.182 789.912 377.257 789.912 397.109L782.563 491.469C781.185 509.28 766.335 523.008 748.473 523.008Z" fill="#FCBF77"/>
<path d="M775.435 368.364C764.259 365.711 753.031 372.651 750.429 383.878C747.775 395.054 754.715 406.282 765.943 408.884L824.07 422.663C834.991 425.266 846.014 418.683 848.974 407.864C852.036 396.535 845.095 384.899 833.664 382.194L775.435 368.364Z" fill="#FCBF77"/>
<path d="M627.835 367.089C636.612 359.638 649.728 360.709 657.179 369.487C664.63 378.265 663.558 391.38 654.78 398.831L609.309 437.616C600.736 444.914 587.977 444.098 580.373 435.779C572.463 427.053 573.331 413.58 582.313 405.976L627.835 367.089Z" fill="#FCBF77"/>
<path d="M643.021 389.043C650.152 389.043 655.932 369.371 655.932 345.104C655.932 320.836 650.152 301.164 643.021 301.164C635.89 301.164 630.109 320.836 630.109 345.104C630.109 369.371 635.89 389.043 643.021 389.043Z" stroke="#60269E" stroke-width="10" stroke-miterlimit="10"/>
<path d="M757.403 390.211C764.534 390.211 770.315 370.539 770.315 346.271C770.315 322.004 764.534 302.332 757.403 302.332C750.273 302.332 744.492 322.004 744.492 346.271C744.492 370.539 750.273 390.211 757.403 390.211Z" stroke="#60269E" stroke-width="10" stroke-miterlimit="10"/>
<path d="M700.24 384.5C686.461 384.5 675.285 373.323 675.285 359.544V325.148C675.285 323.158 676.867 321.576 678.857 321.576H721.572C723.563 321.576 725.144 323.158 725.144 325.148V359.544C725.144 373.323 714.019 384.5 700.24 384.5Z" fill="#664E3A"/>
<path d="M774.316 313.125L737.419 345.888C729.713 352.727 719.608 356.146 709.35 355.329L684.293 353.39C673.729 352.573 663.982 347.368 657.449 338.999L628.156 301.642C622.287 294.191 619.481 284.801 620.195 275.36L623.92 227.491C626.268 197.228 652.652 174.621 682.915 176.968L740.072 181.408C770.335 183.756 792.943 210.14 790.595 240.402L786.921 287.71C786.155 297.508 781.613 306.643 774.316 313.125Z" fill="#82665A"/>
<path d="M817.125 181.563L809.879 190.545V202.079L799.11 206.264L793.344 216.266L781.963 214.48L771.961 220.247L762.928 213H751.394L747.261 202.232L737.258 196.465L738.993 185.034L733.227 175.031L740.473 166.049V154.516L751.241 150.331L757.008 140.328L768.44 142.114L778.442 136.348L787.424 143.595H798.957L803.142 154.363L813.144 160.129L811.358 171.561L817.125 181.563Z" fill="#FCBF77"/>
<path d="M794.583 179.809L791.214 183.943V189.301L786.213 191.24L783.559 195.834L778.303 195.017L773.659 197.671L769.474 194.353H764.167L762.227 189.352L757.584 186.698L758.4 181.391L755.746 176.798L759.063 172.613L759.114 167.254L764.065 165.366L766.769 160.722L772.026 161.539L776.67 158.885L780.804 162.202H786.162L788.101 167.203L792.694 169.857L791.878 175.164L794.583 179.809Z" fill="#FCF1D9"/>
<path d="M709.922 241.467L769.988 250.602" stroke="#163029" stroke-width="9" stroke-miterlimit="10"/>
<path d="M693.746 241.467L633.68 250.602" stroke="#163029" stroke-width="9" stroke-miterlimit="10"/>
<path d="M716.203 278.782L725.542 273.117L743.608 274.444L755.805 282.763" stroke="#163029" stroke-width="6" stroke-miterlimit="10"/>
<path d="M682.211 278.782L672.923 273.117L654.857 274.444L642.66 282.763" stroke="#163029" stroke-width="6" stroke-miterlimit="10"/>
<path d="M724.267 312.805L718.246 321.888L701.251 328.267L686.707 325.818" stroke="#163029" stroke-width="6" stroke-miterlimit="10"/>
<path d="M887.283 341.528C877.949 335.453 865.504 338.071 859.429 347.356L821.55 390.668C815.623 399.755 817.945 411.953 826.834 418.176C836.168 424.695 849.009 422.226 855.231 412.694L893.111 369.333C899.235 360.097 896.617 347.652 887.283 341.528Z" fill="#82665A"/>
<path d="M842.286 366.666L820.754 391.31C814.63 400.693 817.05 413.237 826.236 419.657C835.817 426.373 849.101 423.855 855.522 414.027L872.264 394.915L842.286 366.666Z" fill="#FCBF77"/>
<path d="M877.741 334.488C864.852 336.217 855.863 348.07 857.592 360.96C859.32 373.85 871.173 382.838 884.063 381.109L898.731 378.442C911.324 376.763 920.312 365.404 919.028 352.761C917.695 339.575 905.694 330.093 892.508 331.871L877.741 334.488Z" fill="#82665A"/>
<path d="M281.166 516.354H151.033C134.637 516.354 121.352 503.069 121.352 486.673V394.32C121.352 377.924 134.637 364.639 151.033 364.639H281.166C297.563 364.639 310.848 377.924 310.848 394.32V486.673C310.848 503.02 297.563 516.354 281.166 516.354Z" fill="#60269E"/>
<path d="M214.075 413.085C190.567 413.085 171.504 394.021 171.504 370.513V340.289C171.504 335.647 175.257 331.844 179.949 331.844H248.299C252.942 331.844 256.745 335.597 256.745 340.289V370.513C256.646 394.021 237.583 413.085 214.075 413.085Z" fill="#664C42"/>
<path d="M329.764 91.3457H103.18V343.266H329.764V91.3457Z" fill="#82665A"/>
<path d="M330.822 176.774H102.262V26.9359L123.202 41.258L145.129 17.4043L164.143 41.258L186.565 17.4043L210.912 36.5169L233.827 17.4043L255.261 36.5169L281.584 17.4043L305.487 36.5169L330.822 26.9359V176.774Z" fill="#163029"/>
<path d="M529.07 207.987L511.068 220.82L520.217 240.902L498.234 243.041L496.155 265.023L476.014 255.873L463.182 273.875L450.348 255.873L430.208 265.023L428.128 243.041L406.087 240.902L415.295 220.82L397.293 207.987L415.295 195.154L406.087 175.014L428.128 172.934L430.208 150.893L450.348 160.101L463.182 142.1L476.014 160.101L496.155 150.893L498.234 172.934L520.217 175.014L511.068 195.154L529.07 207.987Z" fill="#FFD600"/>
<path d="M227.993 316.802L209.473 313.69L210.707 306.48L227.252 309.246L245.722 302.332L252.389 292.355L258.463 296.405L250.512 308.357L227.993 316.802Z" fill="#163029"/>
<path d="M16.979 523.06L127.358 388.136C136.149 377.419 151.953 375.839 162.67 384.63C173.386 393.42 174.967 409.224 166.176 419.941L55.7968 554.865C47.006 565.582 31.2027 567.162 20.4858 558.371C9.76895 549.58 8.18817 533.777 16.979 523.06Z" fill="#82665A"/>
<path d="M85.1606 519.907L167.34 419.455C176.279 408.541 174.649 392.441 163.735 383.502C152.82 374.563 136.72 376.193 127.781 387.107L43.6758 489.88L85.1606 519.907Z" fill="#60269E"/>
<path d="M288.262 386.239C274.483 387.819 264.606 400.215 266.137 413.994C267.717 427.773 280.113 437.65 293.892 436.119L365.552 428.119C379.034 426.637 388.862 414.686 387.776 401.154C386.64 387.029 374.046 376.658 359.971 378.189L288.262 386.239Z" fill="#60269E"/>
<path d="M413.02 319.751C396.92 321.578 385.363 336.098 387.19 352.148C389.017 368.248 403.537 379.805 419.588 377.977L437.96 375.064C453.714 373.286 465.172 359.359 463.937 343.604C462.604 327.109 447.936 315.01 431.49 316.837L413.02 319.751Z" fill="#82665A"/>
<path d="M425.455 326.588C413.898 318.933 398.341 322.094 390.637 333.601L343.028 387.284C335.522 398.544 338.337 413.755 349.399 421.608C360.956 429.855 377.006 426.843 384.858 415.039L432.467 361.356C440.171 349.8 437.011 334.243 425.455 326.588Z" fill="#82665A"/>
<path d="M369.028 357.467L341.964 387.988C334.26 399.643 337.124 415.249 348.532 423.398C360.434 431.892 377.028 428.83 385.078 416.632L406.067 392.926L369.028 357.467Z" fill="#60269E"/>
<path d="M413.02 319.756C396.92 321.583 385.363 336.103 387.19 352.153C389.017 368.253 403.537 379.81 419.588 377.982L426.354 376.896L419.439 318.719L413.02 319.756Z" fill="#82665A"/>
<path d="M231.898 205.568L230.379 215.627L302.847 226.569L304.366 216.51L231.898 205.568Z" fill="#163029"/>
<path d="M198.474 205.66L126.027 216.727L127.564 226.783L200.01 215.716L198.474 205.66Z" fill="#163029"/>
<path d="M284.516 277.876L270.638 268.394L250.982 266.912L240.76 273.184L236.957 266.962L249.155 259.455L273.157 261.233L288.664 271.802L284.516 277.876Z" fill="#163029"/>
<path d="M140.165 278.014L136.016 271.939L151.523 261.37L175.476 259.543L187.724 267L183.872 273.272L173.649 267.05L154.042 268.531L140.165 278.014Z" fill="#163029"/>
<path d="M362.778 413.392L397.25 417.293L397.744 417.442L414.979 333.978H414.93L396.954 283.209L430.042 193.721L477.207 205.03L466.045 299.803L425.894 336.596L403.275 418.824L435.179 430.825L438.883 434.875L398.287 425.096L357.691 415.367L362.778 413.392Z" fill="#159B2E"/>
<path d="M462.627 260.67L458.231 296.426L427.662 324.428H427.612L419.315 322.453H419.266L405.586 283.783L415.265 257.51L462.627 260.67Z" fill="#FFD600"/>
<path d="M461.057 216.934L448.176 286.926L453.179 287.846L466.059 217.855L461.057 216.934Z" fill="#FCF1D9"/>
<path d="M447.697 290.468L446.875 294.887L451.876 295.818L452.698 291.399L447.697 290.468Z" fill="#FCF1D9"/>
<path d="M201.739 437.567C199.22 435.443 196.059 433.912 192.405 432.925C191.417 432.678 190.429 432.431 189.392 432.283C190.577 427.196 190.528 422.702 189.343 418.899C188.355 415.837 186.33 413.121 183.663 411.293C180.996 409.466 177.786 408.478 174.576 408.577C168.748 408.775 163.612 412.38 161.488 417.714C159.711 422.109 160.007 426.85 160.254 430.999V431.097C160.402 433.616 160.599 436.135 160.797 438.9C158.081 440.728 156.155 442.604 154.723 444.777C152.451 448.136 151.71 452.087 152.698 455.544C153.488 458.507 155.562 460.828 158.131 461.816C159.612 462.359 161.291 462.507 163.069 462.211C162.822 466.606 161.093 468.434 160.748 468.73L160.6 468.829L165.44 471.989L165.539 471.891C166.131 471.15 166.674 470.31 167.119 469.372C168.353 466.754 168.946 463.643 168.798 460.186C169.094 460.038 169.341 459.89 169.637 459.741C171.761 461.322 174.28 462.655 177.045 463.643C180.206 464.779 183.713 465.47 187.071 465.668C193.639 465.964 199.862 463.89 203.665 460.087C206.43 457.322 207.912 453.568 207.714 449.519C207.418 444.926 205.245 440.481 201.739 437.567ZM183.614 431.838C183.219 431.838 182.774 431.838 182.379 431.838C176.946 431.937 171.366 433.32 166.181 435.74C166.032 434.06 165.933 432.381 165.835 430.752V430.653C165.637 426.899 165.39 422.998 166.674 419.788C167.909 416.627 170.971 414.454 174.378 414.257C174.477 414.257 174.576 414.257 174.675 414.257C176.65 414.207 178.675 414.8 180.305 415.936C181.935 417.072 183.219 418.751 183.811 420.627C184.848 423.64 184.749 427.393 183.614 431.838ZM181.687 437.518C180.156 441.271 178.132 444.58 175.712 447.444C173.44 450.111 170.872 452.334 168.008 454.013C167.613 450.654 167.119 446.259 166.674 441.864C171.415 439.246 176.601 437.764 181.687 437.518ZM187.219 459.939C182.725 459.742 178.28 458.457 174.724 456.334C176.65 454.803 178.478 453.074 180.107 451.099C183.317 447.296 185.836 442.851 187.713 437.764C192.01 438.357 195.516 439.74 198.084 441.913C200.405 443.839 201.838 446.753 201.936 449.667C201.986 451.395 201.64 453.865 199.565 455.939C196.355 459.198 191.071 460.137 187.219 459.939ZM159.414 447.889C159.957 447.099 160.599 446.358 161.39 445.617C161.785 449.469 162.229 453.222 162.624 456.433C161.587 456.68 160.748 456.68 160.106 456.433C159.217 456.087 158.476 455.149 158.131 453.963C157.587 452.136 158.081 449.864 159.414 447.889Z" fill="white"/>
<path d="M527.848 353.088C538.283 346.297 552.197 349.224 558.988 359.604L601.337 408.026C607.963 418.186 605.368 431.823 595.429 438.78C584.994 446.068 570.638 443.308 563.681 432.651L521.333 384.174C514.486 373.849 517.413 359.935 527.848 353.088Z" fill="#82665A"/>
<path d="M578.134 381.191L602.207 408.743C609.053 419.233 606.348 433.257 596.078 440.435C585.367 447.944 570.515 445.128 563.337 434.14L544.619 412.773L578.134 381.191Z" fill="#FCBF77"/>
<path d="M538.294 345.166C552.704 347.099 562.753 360.35 560.821 374.761C558.888 389.172 545.637 399.22 531.226 397.288L514.828 394.306C500.748 392.429 490.7 379.73 492.135 365.595C493.626 350.853 507.043 340.252 521.785 342.24L538.294 345.166Z" fill="#82665A"/>
<path d="M565.505 403.058L532.76 406.748L532.233 406.865L515.89 327.434L533.053 279.164L501.538 193.992L456.667 204.77L467.27 294.981L505.463 329.952H505.521L527.02 408.212L496.617 419.577L493.161 423.443L531.764 414.188L570.367 404.874L565.505 403.058Z" fill="#159B2E"/>
<path d="M470.647 257.589L474.748 291.623L503.92 318.277L511.827 316.403L524.891 279.556L515.694 254.602L470.647 257.589Z" fill="#FCBF77"/>
<path d="M471.911 216.131L484.168 282.73L479.444 283.6L467.187 217.001L471.911 216.131Z" fill="#FCF1D9"/>
<path d="M485.046 286.023L485.828 290.227L481.106 291.106L480.324 286.902L485.046 286.023Z" fill="#FCF1D9"/>
</svg>
