<svg width="130" height="150" viewBox="0 0 130 150" fill="none" xmlns="http://www.w3.org/2000/svg">
<path d="M62.8772 150L59.3084 144.367H49.7112C46.3337 144.367 43.1474 143.067 40.7385 140.709C39.0306 139.039 37.8325 136.962 37.259 134.693L14.9419 134.03L14.5213 125.529C13.8076 125.771 13.0684 125.911 12.3036 125.975C9.97124 126.561 7.53682 126.294 5.39561 125.198C2.98674 123.974 1.22794 121.871 0.437726 119.284C-0.326994 116.773 -0.0848607 114.135 1.12595 111.815L5.10249 101.427L5.39561 101.529L8.33978 93.8312L8.44176 93.6528C9.4359 91.8557 10.9399 90.441 12.7497 89.5871L11.4242 62.7708L32.0079 63.1022V61.7385L28.9617 52.4853L32.0079 52.651V50.0127H31.753V1.46571L39.8845 7.02268L46.3336 0L51.4191 6.37267L56.8868 0.54806L63.6163 5.82463L69.8361 0.650006L75.6734 5.83737L82.5686 0.82844L89.3747 6.27071L98.5769 2.80397V50H98.3219V52.7657L101.19 52.6128L98.3219 61.3179V64.1473L118.765 64.4787L116.65 93.6528C118.319 94.5195 119.709 95.8705 120.639 97.5529L120.741 97.7313L123.685 105.43L123.978 105.328L127.955 115.715C129.166 118.035 129.421 120.673 128.643 123.184C127.853 125.771 126.094 127.861 123.685 129.098C121.544 130.194 119.097 130.461 116.777 129.875C115.847 129.799 114.929 129.595 114.062 129.251L113.502 136.949L92.3698 136.324C90.4453 141.104 85.7805 144.354 80.453 144.354H67.4782L62.8772 150ZM20.6773 128.205L42.8032 128.868L42.8797 131.71C42.9817 135.445 45.9768 138.376 49.7239 138.376H62.6222L63.5017 139.765L64.636 138.376H80.453C83.7667 138.376 86.6089 136.006 87.1952 132.756L87.6541 130.206L107.932 130.806L108.722 119.895L115.911 123.541C116.382 123.783 116.879 123.91 117.402 123.936L117.759 123.949L118.103 124.05C119.059 124.331 120.066 124.229 120.958 123.783C121.901 123.298 122.589 122.47 122.908 121.463C123.214 120.444 123.112 119.373 122.589 118.455L122.487 118.277L120.435 112.911L120.142 113.013L115.299 100.331C114.763 99.4647 113.897 98.8657 112.903 98.6617L110.315 98.1392L112.329 70.4053L92.3316 70.0867V60.3875L92.7522 59.1129L92.3316 59.1384V44.0352H92.5865V11.509L88.304 13.115L82.403 8.39918L75.2911 13.5483L69.7086 8.57763L63.7311 13.5483L57.4986 8.66682L51.0367 15.5366L46.0023 9.2149L40.7767 14.8993L37.7561 12.8346V44.0097H38.011V58.9855L37.4119 58.9472L38.011 60.7571V69.1817L17.7331 68.8631L18.9822 94.2646L16.3311 94.6852C15.2605 94.8509 14.3429 95.4754 13.7821 96.3803L8.93885 109.062L8.64565 108.96L6.59367 114.326L6.49176 114.504C5.98195 115.435 5.86724 116.505 6.17313 117.512C6.47902 118.532 7.17997 119.347 8.12313 119.832C9.00256 120.278 10.0222 120.38 10.9781 120.099L11.3222 119.997L11.6791 119.985C12.2016 119.959 12.6987 119.832 13.1703 119.59L20.0655 116.097L20.6773 128.205Z" fill="white"/>
<path d="M82.6357 141.37H47.535C43.3035 141.37 39.875 137.942 39.875 133.71V108.666C39.875 104.434 43.3035 101.006 47.535 101.006H82.6357C86.8672 101.006 90.2957 104.434 90.2957 108.666V133.71C90.2957 137.929 86.8672 141.37 82.6357 141.37Z" fill="#60269E"/>
<path d="M67.073 112.809H62.0385C57.1698 112.809 53.2188 108.858 53.2188 103.989V87.127H75.88V103.989C75.8927 108.858 71.9417 112.809 67.073 112.809Z" fill="#664C42"/>
<path d="M95.3295 24.3164H35.0312V91.3569H95.3295V24.3164Z" fill="#82665A"/>
<path d="M95.5786 47.0034H34.7578V7.14868L40.3403 10.9468L46.1776 4.59961L51.2248 10.9468L57.1896 4.59961L63.677 9.68501L69.7693 4.59961L75.4791 9.68501L82.4764 4.59961L88.8363 9.68501L95.5786 7.14868V47.0034Z" fill="#163029"/>
<path d="M33.2031 55.7129L63.5118 57.3698L59.0381 78.9477L40.468 77.8133L33.2031 55.7129Z" fill="#163029"/>
<path d="M96.9607 55.8633L66.6523 57.482L71.1132 79.0598L89.6704 77.9382L96.9607 55.8633Z" fill="#163029"/>
<path d="M59.4609 58.6445H70.3454V62.7103H59.5884L59.4609 58.6445Z" fill="#163029"/>
<path d="M39.9844 76.3211L40.4687 77.8123L47.9885 78.2711L61.1289 57.2413L56.1072 56.9609L39.9844 76.3211Z" fill="#FCF1D9"/>
<path d="M77.7539 78.6657L85.0315 78.2196L92.6531 56.0938L88.5364 56.3104L77.7539 78.6657Z" fill="#FCF1D9"/>
<path d="M71.8296 78.5121L59.0742 78.752L59.1109 80.7016L71.8663 80.4617L71.8296 78.5121Z" fill="#163029"/>
<path d="M69.2954 79.2379L68.082 79.832L72.6505 89.161L73.8638 88.5669L69.2954 79.2379Z" fill="#FCF1D9"/>
<path d="M103.458 105.595C100.17 103.938 96.1427 105.251 94.4858 108.552C92.8289 111.84 94.1417 115.868 97.4427 117.525L114.547 126.204C117.771 127.836 121.697 126.612 123.43 123.451C125.24 120.138 123.953 115.995 120.588 114.288L103.458 105.595Z" fill="#FCF1D9"/>
<path d="M59.8594 106.855L69.6733 107.786L67.9783 114.681L61.5417 114.069L59.8594 106.855Z" fill="#163029"/>
<path d="M51.8398 100.994L53.0762 97.0176L64.5724 107.29L56.7469 120.775L51.8398 100.994Z" fill="#FCF1D9"/>
<path d="M76.9837 100.994L75.7601 97.0176L64.7227 107.29L72.0767 120.775L76.9837 100.994Z" fill="#FCF1D9"/>
<path d="M64.7993 111.879L61.5365 114.071L57.2031 135.458L63.1806 144.877L70.3179 136.146L67.9729 114.683L64.7993 111.879Z" fill="#163029"/>
<path d="M25.6247 101.695C28.913 100.038 32.9406 101.351 34.5975 104.652C36.2544 107.94 34.9416 111.968 31.6405 113.624L14.5363 122.304C11.3117 123.935 7.38608 122.712 5.65271 119.551C3.84286 116.237 5.13012 112.095 8.4949 110.387L25.6247 101.695Z" fill="#FCF1D9"/>
<path d="M17.8094 131.126L14.5977 65.8184L115.541 67.4242L110.71 133.879L17.8094 131.126Z" fill="#FFD600"/>
<path d="M20.1521 92.4789C23.3767 94.2632 24.5493 98.329 22.7649 101.554L15.9462 119.384C14.2 122.545 10.2744 123.743 7.06258 122.099C3.69779 120.378 2.42331 116.223 4.25865 112.922L11.0774 95.0917C12.8618 91.8671 16.9148 90.6945 20.1521 92.4789Z" fill="#82665A"/>
<path d="M19.7975 109.597L15.923 119.73C14.1259 122.98 10.0729 124.216 6.77192 122.534C3.30521 120.762 1.99243 116.48 3.87872 113.077L6.88666 105.213L19.7975 109.597Z" fill="#60269E"/>
<path d="M108.924 96.3929C105.699 98.1773 104.527 102.243 106.311 105.468L113.13 123.298C114.876 126.459 118.801 127.657 122.013 126.013C125.378 124.292 126.653 120.138 124.817 116.836L117.998 99.0057C116.214 95.7811 112.161 94.6086 108.924 96.3929Z" fill="#82665A"/>
<path d="M109.285 113.511L113.16 123.644C114.957 126.894 119.01 128.13 122.311 126.448C125.778 124.676 127.09 120.394 125.204 116.991L122.196 109.127L109.285 113.511Z" fill="#60269E"/>
<path d="M26.3238 113.039L25.9414 121.553L30.5935 121.744L31.1033 109.088L26.7571 112.631L26.3238 113.039Z" fill="#163029"/>
<path d="M36 121.961L40.6394 122.139L41.0089 113.065L36.5226 108.77L36 121.961Z" fill="#163029"/>
<path d="M46.043 122.356L50.695 122.547L51.3705 105.672L46.5528 109.61L46.043 122.356Z" fill="#163029"/>
<path d="M56.0938 122.764L60.733 122.942L61.7654 97.1582L56.9604 101.097L56.0938 122.764Z" fill="#163029"/>
<path d="M66.1367 123.16L70.7887 123.351L71.6044 102.908L67.1181 98.5996L66.1367 123.16Z" fill="#163029"/>
<path d="M76.1953 123.567L80.8346 123.746L81.816 99.1855L77.011 103.124L76.1953 123.567Z" fill="#163029"/>
<path d="M86.2422 123.962L90.8943 124.153L92.2325 90.6836L87.4148 94.6092L86.2422 123.962Z" fill="#163029"/>
<path d="M97.8224 86.1063L96.293 124.368L100.932 124.546L102.627 82.168L97.8224 86.1063Z" fill="#163029"/>
<path d="M101.1 73.123L74.4624 94.9048L64.1005 84.9507L41.8599 103.151L34.4548 96.0392L23.8125 104.744L26.3234 107.803L26.7567 108.338L31.1029 104.795L34.2127 102.246L36.5196 104.477L41.0059 108.785L41.605 109.358L46.5502 105.318L51.3679 101.379L56.9631 96.8039L61.7681 92.8656L63.8456 91.1705L67.1211 94.3058L71.6075 98.6137L74.2075 101.125L77.0115 98.8304L81.8165 94.8921L87.4117 90.3293L92.2294 86.391L97.8246 81.8154L102.63 77.8771L104.044 76.73L101.1 73.123Z" fill="#163029"/>
<path d="M31.7143 78.8681C31.1025 78.3583 30.3505 77.9886 29.4711 77.7592C29.2417 77.6955 28.9995 77.6445 28.7446 77.6063C29.025 76.3827 29.025 75.2994 28.7318 74.3944C28.4897 73.668 28.0181 73.0179 27.3681 72.5591C26.7308 72.113 25.9534 71.8709 25.1759 71.8964C23.774 71.9473 22.5376 72.8013 22.0278 74.0886C21.6072 75.1464 21.6709 76.2808 21.7219 77.2877V77.3131C21.7602 77.9122 21.7985 78.5239 21.8622 79.1867C21.2122 79.6328 20.7533 80.0789 20.3964 80.6014C19.8611 81.4171 19.67 82.3603 19.9121 83.1887C20.1033 83.9025 20.6004 84.4633 21.2122 84.6927C21.569 84.8329 21.9641 84.8584 22.3975 84.7819C22.3465 85.8398 21.9259 86.2731 21.8367 86.3496L21.8112 86.3751L22.971 87.1398L22.9837 87.1143C23.1239 86.9359 23.2514 86.7319 23.3661 86.5025C23.672 85.878 23.7995 85.126 23.774 84.2848C23.8377 84.2466 23.9141 84.2211 23.9779 84.1829C24.5004 84.5652 25.0867 84.8839 25.7495 85.126C26.5142 85.4064 27.3427 85.5721 28.1584 85.6104C29.7388 85.6868 31.2299 85.177 32.1476 84.2594C32.8231 83.5966 33.1672 82.6917 33.129 81.723C33.0907 80.6397 32.5555 79.5691 31.7143 78.8681ZM27.3681 77.4788C27.2661 77.4788 27.1769 77.4788 27.075 77.4788C25.7622 77.5043 24.424 77.8357 23.1877 78.422C23.1622 78.0141 23.1239 77.6063 23.1112 77.2239V77.1984C23.0602 76.2935 23.0092 75.3631 23.3151 74.5856C23.621 73.8336 24.3475 73.3111 25.1632 73.2474C25.1887 73.2474 25.2142 73.2474 25.2396 73.2474C25.7112 73.2346 26.1955 73.3748 26.5906 73.6552C26.9857 73.9356 27.2917 74.3435 27.4319 74.7895C27.6613 75.516 27.6357 76.421 27.3681 77.4788ZM26.8965 78.8553C26.5269 79.7602 26.0426 80.5632 25.469 81.2387C24.921 81.876 24.3092 82.4113 23.621 82.8191C23.5317 82.0034 23.4043 80.9456 23.3023 79.9004C24.4367 79.2759 25.6857 78.919 26.8965 78.8553ZM28.2348 84.2466C27.1515 84.1956 26.0936 83.8898 25.2269 83.3799C25.6985 83.0103 26.1318 82.5897 26.5142 82.1309C27.2789 81.226 27.8907 80.1426 28.3367 78.9318C29.3691 79.072 30.2103 79.4034 30.8221 79.9259C31.3701 80.3847 31.727 81.0857 31.7525 81.7995C31.7652 82.2073 31.6888 82.8064 31.179 83.3162C30.427 84.0554 29.1652 84.2848 28.2348 84.2466ZM21.5436 81.3407C21.671 81.1495 21.8239 80.9711 22.0151 80.7926C22.1171 81.7103 22.219 82.6279 22.3082 83.3927C22.0533 83.4564 21.8494 83.4564 21.6965 83.3927C21.4926 83.3162 21.3014 83.0868 21.2249 82.8064C21.1102 82.373 21.2249 81.825 21.5436 81.3407Z" fill="#FCF1D9"/>
</svg>
