<svg width="142" height="127" viewBox="0 0 142 127" fill="none" xmlns="http://www.w3.org/2000/svg">
<path d="M58.0589 32.794L53.6428 38.9941L53.6394 46.9497L47.0625 49.8178L43.5398 56.7103L36.5744 55.4898L30.4667 59.4603L24.9733 54.4761L17.9245 54.4715L15.3833 47.0493L9.27634 43.0734L10.3578 35.212L6.83984 28.3186L11.2559 22.1185L11.26 14.1629L17.8362 11.2948L21.3596 4.40227L28.325 5.62283L34.432 1.65234L39.9254 6.63649L46.9743 6.64112L49.5154 14.0633L55.6224 18.04L54.5409 25.9007L58.0589 32.794Z" fill="#163029"/>
<path d="M57.5395 56.8058V56.8058C56.1318 55.7682 54.2459 56.2144 53.3266 57.8033L47.6013 65.1953C46.7032 66.7471 47.0575 68.823 48.4023 69.8876V69.8876C49.8107 71.0024 51.7568 70.5794 52.698 68.9543L58.4239 61.5614C59.3426 59.9726 58.9472 57.8434 57.5395 56.8058Z" fill="#82665A"/>
<path d="M4.36146 73.8567V73.8567C4.10085 71.9822 5.23565 70.2244 6.89646 69.9302L15.219 67.0714C16.8415 66.7835 18.3737 68.0009 18.6815 69.8214V69.8214C19.0037 71.7282 17.8634 73.5579 16.1636 73.859L7.84041 76.7178C6.1796 77.0119 4.62208 75.7304 4.36146 73.8567Z" fill="#82665A"/>
<path d="M38.0386 87.2418H25.8904C23.3527 87.2418 21.2171 85.0964 20.9237 82.2515L19.293 66.4576C19.293 63.1811 21.646 60.5254 24.549 60.5254H38.8437C41.7467 60.5254 44.0998 63.1811 44.0998 66.4576L43.0245 82.0369C42.8213 84.9744 40.6496 87.2418 38.0386 87.2418Z" fill="#FCC0EF"/>
<path d="M42.027 61.7093C40.3908 61.2747 38.7519 62.4196 38.3668 64.267V64.267C37.9817 66.1137 38.9961 67.9634 40.633 68.3981L49.1388 70.6755C50.7387 71.104 52.351 70.0209 52.7799 68.229V68.229C53.2279 66.3569 52.2155 64.4376 50.5438 63.9899L42.027 61.7093Z" fill="#FCC0EF"/>
<path d="M50.7299 61.0879L47.476 65.2884C46.5505 66.8873 46.9151 69.0273 48.3009 70.1244V70.1244C49.7524 71.2731 51.7579 70.8369 52.7279 69.1624L55.2547 65.9006L50.7299 61.0879Z" fill="#FFD600"/>
<path d="M20.4088 61.5077C21.6907 60.2802 23.6114 60.457 24.699 61.9038V61.9038C25.7866 63.3505 25.63 65.5183 24.3481 66.7459L17.6939 73.1451C16.4422 74.3487 14.57 74.2128 13.4653 72.8378V72.8378C12.3107 71.4011 12.4379 69.1723 13.7458 67.9147L20.4088 61.5077Z" fill="#FCC0EF"/>
<path d="M10.5859 68.5974L15.3153 66.9731C16.987 66.6766 18.5664 67.9304 18.8831 69.8071V69.8071C19.2156 71.7727 18.0397 73.658 16.2886 73.9683L12.6161 75.2298L10.5859 68.5974Z" fill="#FCC0EF"/>
<path fill-rule="evenodd" clip-rule="evenodd" d="M20.3828 57.8723C20.3828 61.6691 21.1482 65.5122 22.6107 65.5122C24.0731 65.5122 24.8385 61.6691 24.8385 57.8723C24.8385 54.0755 24.0731 50.2324 22.6107 50.2324C21.1482 50.2324 20.3828 54.0755 20.3828 57.8723ZM21.098 57.8693C21.098 53.6764 22.0126 51.0014 22.6419 51.0014C23.2712 51.0014 24.1857 53.6772 24.1857 57.8693C24.1857 62.0621 23.2712 64.7371 22.6419 64.7371C22.0126 64.7371 21.098 62.0613 21.098 57.8693Z" fill="#FCF1D9"/>
<path fill-rule="evenodd" clip-rule="evenodd" d="M37.1367 58.0715C37.1367 61.8683 37.9021 65.7114 39.3646 65.7114C40.8277 65.7114 41.5925 61.8683 41.5925 58.0715C41.5925 54.2747 40.827 50.4316 39.3646 50.4316C37.9021 50.4316 37.1367 54.2747 37.1367 58.0715ZM37.852 58.0685C37.852 53.8757 38.7665 51.2006 39.3958 51.2006C40.0258 51.2006 40.9396 53.8757 40.9396 58.0685C40.9396 62.2613 40.0251 64.9364 39.3958 64.9364C38.7665 64.9364 37.852 62.2613 37.852 58.0685Z" fill="#FCF1D9"/>
<path d="M31.0282 64.3825V64.3825C29.0124 64.3825 27.3789 62.5381 27.3789 60.2637V54.5894C27.3789 54.2628 27.6135 53.998 27.9029 53.998H34.1542C34.4435 53.998 34.6781 54.2628 34.6781 54.5894V60.2637C34.6781 62.5381 33.044 64.3825 31.0282 64.3825Z" fill="#664E3A"/>
<path d="M56.0882 55.5991C54.1435 55.8963 52.7809 57.9167 53.0443 60.1107V60.1107C53.3076 62.3056 55.0977 63.8434 57.0417 63.5462L59.26 63.0907C61.163 62.8043 62.5194 60.8634 62.3244 58.7087V58.7087C62.1206 56.4568 60.3073 54.8417 58.3195 55.1413L56.0882 55.5991Z" fill="#82665A"/>
<path d="M8.41607 69.1728C10.135 70.2413 10.7609 72.6801 9.81421 74.6201V74.6201C8.86752 76.5602 6.70669 77.2666 4.98774 76.1982L3.06426 74.8711C1.38088 73.8296 0.73516 71.4672 1.60592 69.5364V69.5364C2.51499 67.5191 4.72302 66.7502 6.48165 67.8387L8.41607 69.1728Z" fill="#82665A"/>
<path d="M4.07334 74.7256C3.80315 72.5323 5.15957 70.5065 7.10289 70.2008V70.2008C9.0462 69.8959 10.8411 71.4268 11.1119 73.6201L11.1892 74.5527L4.14722 75.615L4.07334 74.7256Z" fill="#82665A"/>
<path d="M41.8209 52.5958L36.4239 58.0069C35.3001 59.1333 33.8192 59.6961 32.3205 59.5648L28.6541 59.2445C27.1075 59.1094 25.6827 58.2486 24.7258 56.8705L20.441 50.7036C19.586 49.473 19.1715 47.9259 19.2782 46.3664L19.8199 38.4664C20.1626 33.4745 24.026 29.741 28.4489 30.127L36.8104 30.8574C41.2333 31.2441 44.5412 35.6045 44.1992 40.5964L43.6636 48.4069C43.5521 50.0204 42.8921 51.5212 41.8209 52.5958Z" fill="#82665A"/>
<path d="M48.0936 30.8702L47.0354 32.3555L47.0347 34.2616L45.4594 34.9487L44.6153 36.5993L42.947 36.3075L41.4838 37.2586L40.1678 36.0643L38.4789 36.0635L37.8708 34.2856L36.4077 33.3329L36.6669 31.4492L35.8242 29.7986L36.8817 28.3132L36.8824 26.4071L38.4584 25.72L39.3018 24.0695L40.9708 24.3613L42.4339 23.4102L43.7493 24.6045L45.4382 24.6052L46.047 26.3832L47.5101 27.3359L47.2508 29.2188L48.0936 30.8702Z" fill="#FCC0EF"/>
<path d="M44.8233 30.5794L44.3342 31.2673L44.3335 32.1489L43.6044 32.467L43.2138 33.2313L42.4415 33.0962L41.7643 33.5362L41.1549 32.9835H40.3737L40.0919 32.1605L39.4147 31.7197L39.5344 30.8481L39.1445 30.0838L39.6343 29.3959L39.635 28.5143L40.3641 28.1962L40.7547 27.4319L41.527 27.567L42.2042 27.127L42.813 27.6797H43.5948L43.8766 28.5027L44.5538 28.9435L44.4334 29.8151L44.8233 30.5794Z" fill="#FCF1D9"/>
<path d="M32.3759 41.1027L32.4683 40.4157L41.2561 41.9215L41.1637 42.6084L32.3759 41.1027Z" fill="#163029"/>
<path d="M21.2392 41.9344L30.027 40.4276L30.1194 41.1146L21.3317 42.6214L21.2392 41.9344Z" fill="#163029"/>
<path d="M38.8934 47.9964L37.2107 46.7002L34.8296 46.4979L33.5888 47.3548L33.125 46.4987L34.6107 45.4727L37.5151 45.7197L39.3948 47.168L38.8934 47.9964Z" fill="#163029"/>
<path d="M22.8139 47.9964L22.3125 47.168L24.1915 45.7197L27.0966 45.4727L28.5823 46.4987L28.1178 47.3548L26.8777 46.4979L24.4959 46.7002L22.8139 47.9964Z" fill="#163029"/>
<ellipse rx="0.924378" ry="0.84521" transform="matrix(0.420784 -0.907161 0.857756 0.514057 9.68035 69.8264)" fill="#FCF1D9"/>
<ellipse rx="0.924378" ry="0.84521" transform="matrix(0.420784 -0.907161 0.857756 0.514057 9.50457 71.7092)" fill="#FCF1D9"/>
<ellipse rx="0.924378" ry="0.84521" transform="matrix(0.420784 -0.907161 0.857756 0.514057 9.26238 73.5901)" fill="#FCF1D9"/>
<ellipse rx="0.924378" ry="0.84521" transform="matrix(0.420784 -0.907161 0.857756 0.514057 9.22332 75.3908)" fill="#FCF1D9"/>
<ellipse rx="0.924378" ry="0.84521" transform="matrix(0.420784 -0.907161 0.857756 0.514057 9.19207 77.1506)" fill="#FCF1D9"/>
<path d="M31.1779 55.4268L28.9336 55.0045L29.0793 54.0148L31.089 54.3923L33.325 53.4458L34.1315 52.0801L34.8716 52.6367L33.9058 54.2718L31.1779 55.4268Z" fill="#163029"/>
<path fill-rule="evenodd" clip-rule="evenodd" d="M33.4217 71.901C33.1522 71.6462 32.8163 71.4579 32.4237 71.3421C32.3204 71.3112 32.2117 71.2857 32.1022 71.2656C32.2281 70.6534 32.226 70.1107 32.0954 69.6529C31.9907 69.2854 31.7759 68.9596 31.4914 68.7342C31.2068 68.5087 30.8614 68.3922 30.5194 68.4053C29.899 68.4292 29.349 68.8608 29.1206 69.5062C28.9325 70.0358 28.9612 70.6063 28.9872 71.1097L28.9879 71.1213C29.0036 71.4239 29.0227 71.7311 29.0474 72.0593C28.7587 72.2808 28.5528 72.5063 28.3982 72.7672C28.1581 73.1748 28.0781 73.6473 28.18 74.0634C28.2669 74.4185 28.4831 74.7011 28.7587 74.8192C28.9174 74.8872 29.0946 74.9026 29.2861 74.8663C29.2615 75.3936 29.074 75.6144 29.0364 75.6538L29.0227 75.6684L29.5392 76.049L29.5474 76.0375C29.611 75.9479 29.6685 75.846 29.7163 75.7325C29.8504 75.4183 29.9106 75.0446 29.8949 74.6231L29.8949 74.6231L29.8949 74.6231L29.8949 74.6231L29.8949 74.6231C29.925 74.6061 29.9551 74.5891 29.9852 74.5714C30.2143 74.7629 30.4797 74.9211 30.7745 75.0416C31.1138 75.1798 31.4846 75.2631 31.8471 75.2824C32.5468 75.3195 33.2097 75.067 33.6194 74.6077C33.9169 74.2742 34.0708 73.8218 34.0524 73.3346C34.0312 72.7888 33.7959 72.2538 33.4217 71.901ZM31.4667 71.2178C31.4229 71.2171 31.3792 71.2178 31.3354 71.2186L31.3354 71.2186C30.754 71.2317 30.1575 71.3954 29.6089 71.6911C29.5945 71.4865 29.5829 71.2842 29.5733 71.0904L29.5727 71.0789C29.5494 70.6257 29.5255 70.1571 29.6636 69.7695C29.7977 69.3912 30.1206 69.1288 30.4858 69.101L30.4893 69.1007C30.4995 69.1 30.5088 69.0994 30.5187 69.0994C30.7293 69.0917 30.9434 69.1643 31.1206 69.304C31.2978 69.4445 31.4311 69.646 31.4954 69.8722C31.5974 70.2343 31.5878 70.6875 31.4667 71.2178ZM30.6771 73.0908C30.9336 72.7488 31.147 72.3466 31.3125 71.8957C30.7701 71.9243 30.2188 72.1041 29.716 72.4176C29.7612 72.9464 29.8145 73.4753 29.8562 73.8829C30.1606 73.6791 30.4363 73.4127 30.6771 73.0908ZM31.9125 74.5858C31.433 74.5603 30.959 74.4067 30.5759 74.1511C30.7825 73.9674 30.9754 73.7558 31.1492 73.5235C31.4898 73.068 31.7627 72.5283 31.9611 71.9184C32.4208 71.9887 32.7929 72.1562 33.0678 72.4156C33.3134 72.6472 33.4673 72.9977 33.481 73.3529C33.4885 73.5598 33.4509 73.8593 33.2265 74.111C32.8852 74.4939 32.3236 74.6074 31.9125 74.5858ZM29.0853 72.8693C29.0012 72.9589 28.9321 73.0492 28.8753 73.1457C28.7344 73.385 28.6824 73.6599 28.7365 73.8807C28.7707 74.022 28.8528 74.1385 28.9451 74.1779C29.0135 74.2072 29.1017 74.2057 29.2146 74.1748C29.1742 73.788 29.1277 73.3325 29.0853 72.8693Z" fill="#60269E"/>
<path fill-rule="evenodd" clip-rule="evenodd" d="M56.4987 63.2685L66.1808 67.5956L73.0673 47.7588L63.3852 43.4317L56.4987 63.2685Z" fill="#009845"/>
<path d="M66.4321 52.3384L65.5317 51.9359L64.5666 51.8668L63.6314 52.1382L62.8171 52.7232L62.2037 53.5649L61.8515 54.5806L61.7944 55.671L62.0383 56.7294L62.5595 57.6518L63.3068 58.3486L64.2068 58.7512L65.1719 58.8203L66.1073 58.5486L66.9215 57.9636L67.5348 57.1221L67.8874 56.1064L67.9444 55.0162L67.7002 53.9576L67.1792 53.0349L66.4321 52.3384Z" fill="#007231"/>
<path fill-rule="evenodd" clip-rule="evenodd" d="M63.4083 43.4945L73.0942 47.831L73.3286 47.1549L63.6424 42.8183L63.4083 43.4945Z" fill="#007231"/>
<path fill-rule="evenodd" clip-rule="evenodd" d="M56.4435 63.4476L66.1294 67.7841L66.3637 67.108L56.6778 62.7715L56.4435 63.4476Z" fill="#007231"/>
<path d="M100.444 88.4127H119.588C122.001 88.4127 123.957 86.1982 123.957 83.4658V68.0837C123.957 65.3513 122.001 63.1367 119.588 63.1367H100.444C98.0311 63.1367 96.0753 65.3513 96.0753 68.0837V83.4658C96.0753 86.1974 98.0311 88.4127 100.444 88.4127Z" fill="#60269E"/>
<path d="M110.298 71.2188V71.2188C113.758 71.2188 116.562 68.0424 116.562 64.1251V59.0922C116.562 58.3173 116.008 57.6895 115.324 57.6895H105.272C104.588 57.6895 104.033 58.3173 104.033 59.0922V64.1251C104.033 68.0424 106.838 71.2188 110.298 71.2188Z" fill="#664C42"/>
<rect width="33.3316" height="41.9629" transform="matrix(-1 0 0 1 126.617 17.6504)" fill="#82665A"/>
<path d="M93.1511 31.8424H126.77V6.88972L123.687 9.27463L120.462 5.30078L117.666 9.27463L114.369 5.30078L110.785 8.47941L107.416 5.30078L104.262 8.47941L100.391 5.30078L96.8788 8.47941L93.1511 6.88972V31.8424Z" fill="#163029"/>
<path d="M108.296 55.1827L111.02 54.6687L110.842 53.4634L108.404 53.9239L105.691 52.7722L104.713 51.1094L103.816 51.787L104.987 53.7777L108.296 55.1827Z" fill="#163029"/>
<path d="M139.309 89.5265L123.072 67.0568C121.78 65.2696 119.454 65.0066 117.875 66.4689V66.4689C116.297 67.9312 116.065 70.5656 117.356 72.3528L133.594 94.8225C134.885 96.6097 137.212 96.8728 138.79 95.4104V95.4104C140.368 93.9481 140.601 91.3137 139.309 89.5265Z" fill="#82665A"/>
<path d="M129.306 89.002L117.216 72.2706C115.902 70.4525 116.139 67.7737 117.743 66.2857V66.2857C119.349 64.7985 121.715 65.0661 123.029 66.8835L135.398 84.0007L129.306 89.002Z" fill="#60269E"/>
<path d="M99.4301 66.7404C101.456 67.0005 102.913 69.0718 102.683 71.3663V71.3663C102.454 73.6607 100.624 75.31 98.598 75.0499L88.0584 73.7188C86.076 73.4685 84.6268 71.4801 84.7866 69.2286V69.2286C84.953 66.8761 86.8056 65.1455 88.8772 65.407L99.4301 66.7404Z" fill="#60269E"/>
<path d="M81.0462 55.6679C83.4114 55.9716 85.1115 58.3889 84.8432 61.0671V61.0671C84.575 63.7452 82.4402 65.6703 80.075 65.3666L77.3744 64.8781C75.0599 64.5857 73.369 62.2656 73.5554 59.6372V59.6372C73.7498 56.8912 75.9119 54.8711 78.3296 55.1772L81.0462 55.6679Z" fill="#82665A"/>
<path d="M79.222 56.8014V56.8014C80.9215 55.5245 83.2127 56.0491 84.3404 57.9727L91.3446 66.9116C92.4462 68.7908 92.0329 71.3219 90.41 72.6304V72.6304C88.7105 74.0008 86.346 73.5056 85.1917 71.5375L78.1875 62.5978C77.0599 60.6735 77.5225 58.0782 79.222 56.8014Z" fill="#82665A"/>
<path d="M87.5291 61.9453L91.5091 67.0249C92.6448 68.9621 92.2187 71.5694 90.5459 72.9186V72.9186C88.7938 74.3312 86.3575 73.8209 85.1679 71.7918L82.0772 67.8473L87.5291 61.9453Z" fill="#60269E"/>
<path d="M81.0463 55.6535C83.4114 55.9573 85.1115 58.3746 84.8432 61.0527V61.0527C84.575 63.7309 82.4402 65.656 80.075 65.3522L79.0805 65.1728L80.0977 55.4824L81.0463 55.6535Z" fill="#82665A"/>
<path fill-rule="evenodd" clip-rule="evenodd" d="M82.9014 66.105L71.7785 67.764L69.1212 44.8926L80.2441 43.2337L82.9014 66.105Z" fill="#009845"/>
<path d="M75.0131 51.6773L76.0475 51.5229L77.0732 51.7378L77.9895 52.3011L78.7074 53.1576L79.1562 54.2237L79.2919 55.3946L79.1016 56.5561L78.6037 57.5945L77.8469 58.4074L76.9051 58.9162L75.8711 59.0709L74.8455 58.856L73.9291 58.2923L73.2112 57.4358L72.7625 56.3701L72.6264 55.1989L72.8168 54.0378L73.315 52.9993L74.0717 52.186L75.0131 51.6773Z" fill="#007231"/>
<path fill-rule="evenodd" clip-rule="evenodd" d="M80.2044 43.2886L69.0754 44.9562L68.9852 44.1768L80.1145 42.5092L80.2044 43.2886Z" fill="#007231"/>
<path fill-rule="evenodd" clip-rule="evenodd" d="M82.9114 66.3061L71.7824 67.9738L71.6922 67.1944L82.8212 65.5268L82.9114 66.3061Z" fill="#007231"/>
<path d="M81.1916 53.1982C82.1664 52.993 83.1035 53.7214 83.2847 54.8252V54.8252C83.4659 55.9289 82.8226 56.9901 81.8478 57.1952L80.7196 57.373C79.7662 57.5757 78.8433 56.8847 78.6348 55.8121V55.8121C78.4169 54.6916 79.0609 53.5888 80.0568 53.3773L81.1916 53.1982Z" fill="#82665A"/>
<path d="M107.895 38.3164L107.672 36.6439L97.0097 38.4668L97.2327 40.1393L107.895 38.3164Z" fill="#163029"/>
<path d="M123.219 38.4941L112.56 36.6505L112.335 38.3225L122.993 40.1661L123.219 38.4941Z" fill="#163029"/>
<path d="M99.9542 48.6913L101.997 47.1159L104.886 46.8725L106.39 47.9164L106.953 46.8747L105.152 45.625L101.628 45.922L99.3472 47.682L99.9542 48.6913Z" fill="#163029"/>
<path d="M121.192 48.7148L121.801 47.7063L119.522 45.9417L115.999 45.6387L114.195 46.8846L114.758 47.9271L116.264 46.8862L119.152 47.1349L121.192 48.7148Z" fill="#163029"/>
<path d="M102.599 60.434L97.3318 67.8286L97.3277 77.3168L89.4837 80.7374L85.2823 88.9578L76.9749 87.5021L69.6906 92.2375L63.1388 86.2932L54.7319 86.2877L51.7012 77.4356L44.4176 72.6938L45.7074 63.3178L41.5117 55.0965L46.7786 47.702L46.7835 38.2137L54.6267 34.7931L58.8289 26.5727L67.1363 28.0284L74.4198 23.293L80.9716 29.2373L89.3785 29.2428L92.4092 38.0949L99.6928 42.8377L98.403 52.2127L102.599 60.434Z" fill="#163029"/>
<path d="M101.991 89.0894V89.0894C100.312 87.8519 98.063 88.3841 96.9666 90.279L90.1382 99.0952C89.0671 100.946 89.4897 103.422 91.0936 104.691V104.691C92.7733 106.021 95.0943 105.516 96.2168 103.578L103.046 94.7612C104.142 92.8663 103.67 90.3269 101.991 89.0894Z" fill="#82665A"/>
<path d="M38.5561 109.424V109.424C38.2453 107.188 39.5987 105.092 41.5795 104.741L51.5055 101.332C53.4406 100.988 55.268 102.44 55.6351 104.611V104.611C56.0193 106.885 54.6594 109.068 52.6321 109.427L42.7053 112.836C40.7246 113.187 38.867 111.659 38.5561 109.424Z" fill="#82665A"/>
<path d="M78.7557 125.387H64.2669C61.2403 125.387 58.6933 122.828 58.3433 119.435L56.3984 100.598C56.3984 96.6908 59.2048 93.5234 62.6671 93.5234H79.7159C83.1782 93.5234 85.9846 96.6908 85.9846 100.598L84.7021 119.179C84.4598 122.683 81.8696 125.387 78.7557 125.387Z" fill="#FFD600"/>
<path d="M83.4823 94.936C81.5309 94.4177 79.5762 95.7831 79.1169 97.9865V97.9865C78.6576 100.189 79.8674 102.395 81.8197 102.913L91.9642 105.63C93.8724 106.141 95.7953 104.849 96.3068 102.712V102.712C96.8412 100.479 95.6338 98.19 93.6399 97.6559L83.4823 94.936Z" fill="#FFD600"/>
<path d="M93.8927 94.2012L90.0119 99.211C88.9081 101.118 89.343 103.67 90.9958 104.979V104.979C92.7269 106.349 95.1189 105.828 96.2757 103.831L99.2893 99.9411L93.8927 94.2012Z" fill="#FFD600"/>
<path d="M57.719 94.6943C59.2478 93.2303 61.5386 93.4411 62.8358 95.1666V95.1666C64.1329 96.8921 63.9461 99.4776 62.4173 100.942L54.4811 108.574C52.9881 110.009 50.7553 109.847 49.4377 108.207V108.207C48.0606 106.494 48.2124 103.835 49.7722 102.336L57.719 94.6943Z" fill="#FFD600"/>
<path d="M46.0312 103.155L51.6718 101.218C53.6656 100.864 55.5493 102.359 55.927 104.598V104.598C56.3235 106.942 54.9211 109.19 52.8327 109.561L48.4526 111.065L46.0312 103.155Z" fill="#FFD600"/>
<path fill-rule="evenodd" clip-rule="evenodd" d="M57.7617 90.3558C57.7617 94.8841 58.6746 99.4676 60.4188 99.4676C62.163 99.4676 63.0759 94.8841 63.0759 90.3558C63.0759 85.8276 62.163 81.2441 60.4188 81.2441C58.6746 81.2441 57.7617 85.8276 57.7617 90.3558ZM58.5844 90.3674C58.5844 85.3668 59.6752 82.1764 60.4257 82.1764C61.1763 82.1764 62.267 85.3677 62.267 90.3674C62.267 95.368 61.1763 98.5583 60.4257 98.5583C59.6752 98.5583 58.5844 95.367 58.5844 90.3674Z" fill="#FCF1D9"/>
<path fill-rule="evenodd" clip-rule="evenodd" d="M77.6836 90.598C77.6836 95.1263 78.5965 99.7097 80.3407 99.7097C82.0857 99.7097 82.9978 95.1263 82.9978 90.598C82.9978 86.0698 82.0849 81.4863 80.3407 81.4863C78.5965 81.4863 77.6836 86.0698 77.6836 90.598ZM78.5063 90.6096C78.5063 85.609 79.5971 82.4186 80.3476 82.4186C81.099 82.4186 82.1889 85.609 82.1889 90.6096C82.1889 95.6101 81.0981 98.8005 80.3476 98.8005C79.5971 98.8005 78.5063 95.6101 78.5063 90.6096Z" fill="#FCF1D9"/>
<path d="M70.3484 98.1135V98.1135C67.9442 98.1135 65.9961 95.9138 65.9961 93.2013V86.4338C65.9961 86.0443 66.2759 85.7285 66.621 85.7285H74.0767C74.4218 85.7285 74.7016 86.0443 74.7016 86.4338V93.2013C74.7016 95.9138 72.7526 98.1135 70.3484 98.1135Z" fill="#664E3A"/>
<path d="M100.275 87.657C97.9553 88.0115 96.3302 90.4211 96.6443 93.0379V93.0379C96.9584 95.6556 99.0934 97.4897 101.412 97.1352L104.058 96.592C106.327 96.2504 107.945 93.9356 107.712 91.3658V91.3658C107.469 88.68 105.307 86.7538 102.936 87.111L100.275 87.657Z" fill="#82665A"/>
<path d="M43.416 103.842C45.4661 105.116 46.2126 108.025 45.0835 110.338V110.338C43.9544 112.652 41.3773 113.495 39.3272 112.22L37.0331 110.638C35.0254 109.396 34.2553 106.578 35.2938 104.275V104.275C36.378 101.869 39.0114 100.952 41.1089 102.251L43.416 103.842Z" fill="#82665A"/>
<path d="M38.2948 110.466C37.9725 107.85 39.5903 105.434 41.908 105.07V105.07C44.2257 104.706 46.3664 106.532 46.6895 109.148L46.7817 110.26L38.3829 111.527L38.2948 110.466Z" fill="#82665A"/>
<path d="M83.2648 84.0879L76.8281 90.5414C75.4877 91.8848 73.7215 92.556 71.9341 92.3995L67.5613 92.0174C65.7168 91.8563 64.0174 90.8296 62.8761 89.1861L57.7659 81.8312C56.7461 80.3635 56.2518 78.5183 56.379 76.6584L57.0251 67.2364C57.4339 61.2829 62.0416 56.8302 67.3166 57.2905L77.289 58.1616C82.564 58.6228 86.5093 63.8232 86.1014 69.7768L85.4626 79.092C85.3296 81.0163 84.5424 82.8062 83.2648 84.0879Z" fill="#82665A"/>
<path d="M90.7269 58.1843L89.4649 59.9558L89.464 62.2291L87.5852 63.0486L86.5785 65.0171L84.5888 64.6691L82.8438 65.8035L81.2741 64.3791L79.2599 64.3781L78.5347 62.2577L76.7896 61.1215L77.0988 58.8748L76.0938 56.9063L77.355 55.1348L77.3558 52.8614L79.2354 52.042L80.2413 50.0734L82.2319 50.4215L83.9769 49.2871L85.5457 50.7115L87.5599 50.7124L88.286 52.8329L90.031 53.9691L89.7218 56.2148L90.7269 58.1843Z" fill="#FFD600"/>
<path d="M86.7963 57.807L86.213 58.6274L86.2122 59.6789L85.3425 60.0583L84.8767 60.9698L83.9556 60.8087L83.148 61.3335L82.4211 60.6742H81.4894L81.1533 59.6927L80.3457 59.167L80.4884 58.1275L80.0234 57.2159L80.6076 56.3955L80.6084 55.344L81.478 54.9647L81.9439 54.0531L82.8649 54.2143L83.6726 53.6895L84.3986 54.3487H85.3311L85.6672 55.3302L86.4749 55.856L86.3313 56.8955L86.7963 57.807Z" fill="#FCF1D9"/>
<path d="M72.0115 70.375L72.1217 69.5557L82.6025 71.3515L82.4923 72.1708L72.0115 70.375Z" fill="#163029"/>
<path d="M58.6599 71.3398L69.1408 69.5428L69.251 70.3621L58.7702 72.1592L58.6599 71.3398Z" fill="#163029"/>
<path d="M79.7664 78.592L77.7595 77.046L74.9197 76.8048L73.4398 77.8268L72.8867 76.8057L74.6587 75.582L78.1226 75.8767L80.3644 77.604L79.7664 78.592Z" fill="#163029"/>
<path d="M60.6058 78.592L60.0078 77.604L62.2488 75.8767L65.7136 75.582L67.4855 76.8057L66.9316 77.8268L65.4525 76.8048L62.6119 77.046L60.6058 78.592Z" fill="#163029"/>
<ellipse rx="1.10245" ry="1.00804" transform="matrix(0.420784 -0.907161 0.857756 0.514057 44.895 104.616)" fill="#FCF1D9"/>
<ellipse rx="1.10245" ry="1.00804" transform="matrix(0.420784 -0.907161 0.857756 0.514057 44.6879 106.862)" fill="#FCF1D9"/>
<ellipse rx="1.10245" ry="1.00804" transform="matrix(0.420784 -0.907161 0.857756 0.514057 44.4106 109.104)" fill="#FCF1D9"/>
<ellipse rx="1.10245" ry="1.00804" transform="matrix(0.420784 -0.907161 0.857756 0.514057 44.3598 111.251)" fill="#FCF1D9"/>
<ellipse rx="1.10245" ry="1.00804" transform="matrix(0.420784 -0.907161 0.857756 0.514057 44.3285 113.352)" fill="#FCF1D9"/>
<path d="M70.6298 87.4328L67.9531 86.9292L68.1269 85.7488L70.5237 86.199L73.1906 85.0702L74.1525 83.4414L75.0352 84.1053L73.8832 86.0554L70.6298 87.4328Z" fill="#163029"/>
<path fill-rule="evenodd" clip-rule="evenodd" d="M73.2485 107.102C72.9271 106.798 72.5265 106.573 72.0582 106.435C71.9351 106.399 71.8053 106.368 71.6748 106.344C71.8249 105.614 71.8225 104.967 71.6667 104.421C71.5418 103.982 71.2857 103.594 70.9463 103.325C70.6069 103.056 70.1949 102.917 69.787 102.933C69.0471 102.961 68.3912 103.476 68.1187 104.246C67.8944 104.877 67.9286 105.558 67.9596 106.158L67.9604 106.172C67.9792 106.533 68.002 106.899 68.0314 107.291C67.6871 107.555 67.4416 107.824 67.2572 108.135C66.9709 108.621 66.8754 109.185 66.997 109.681C67.1006 110.105 67.3584 110.442 67.6871 110.582C67.8764 110.663 68.0877 110.682 68.3161 110.639C68.2868 111.267 68.0632 111.531 68.0184 111.578L68.002 111.595L68.618 112.049L68.6278 112.035C68.7036 111.929 68.7722 111.807 68.8293 111.672C68.9892 111.297 69.061 110.851 69.0422 110.349C69.0781 110.328 69.114 110.308 69.1499 110.287C69.4232 110.515 69.7397 110.704 70.0913 110.848C70.496 111.012 70.9381 111.112 71.3705 111.135C72.2051 111.179 72.9956 110.878 73.4843 110.33C73.8392 109.932 74.0227 109.393 74.0007 108.812C73.9754 108.161 73.6948 107.523 73.2485 107.102ZM70.9496 106.263C70.8974 106.262 70.8452 106.263 70.793 106.264L70.793 106.264C70.0995 106.28 69.3881 106.475 68.7339 106.827C68.7167 106.583 68.7029 106.342 68.6914 106.111L68.6906 106.097C68.6629 105.557 68.6343 104.998 68.7991 104.536C68.959 104.084 69.3441 103.771 69.7797 103.738L69.7839 103.738C69.7961 103.737 69.8072 103.736 69.8189 103.736C70.0702 103.727 70.3255 103.814 70.5368 103.98C70.7481 104.148 70.9072 104.388 70.9839 104.658C71.1054 105.09 71.094 105.63 70.9496 106.263ZM69.923 108.533C70.2289 108.125 70.4835 107.645 70.6809 107.107C70.034 107.141 69.3764 107.356 68.7768 107.73C68.8306 108.36 68.8943 108.991 68.944 109.477C69.3071 109.234 69.6358 108.917 69.923 108.533ZM71.4375 110.319C70.8657 110.289 70.3003 110.106 69.8434 109.801C70.0898 109.582 70.3199 109.33 70.5271 109.053C70.9334 108.509 71.2589 107.866 71.4955 107.138C72.0437 107.222 72.4875 107.422 72.8154 107.731C73.1083 108.007 73.2919 108.425 73.3082 108.849C73.3172 109.096 73.2723 109.453 73.0047 109.753C72.5976 110.21 71.9278 110.345 71.4375 110.319ZM68.1347 108.238C68.0343 108.345 67.9519 108.453 67.8842 108.568C67.7162 108.853 67.6542 109.181 67.7186 109.444C67.7594 109.613 67.8573 109.752 67.9674 109.799C68.049 109.834 68.1542 109.832 68.2889 109.795C68.2407 109.334 68.1852 108.79 68.1347 108.238Z" fill="#60269E"/>
<path fill-rule="evenodd" clip-rule="evenodd" d="M100.892 96.8167L112.465 101.987L120.681 78.3299L109.108 73.1594L100.892 96.8167Z" fill="#FCF1D9"/>
<path d="M112.781 83.7853L111.704 83.3044L110.551 83.2211L109.434 83.544L108.461 84.2412L107.729 85.2448L107.308 86.456L107.241 87.7567L107.533 89.0195L108.156 90.1203L109.05 90.9521L110.126 91.4332L111.279 91.5165L112.397 91.1932L113.369 90.496L114.102 89.4928L114.523 88.2814L114.59 86.9811L114.297 85.7181L113.674 84.6169L112.781 83.7853Z" fill="#007231"/>
<path fill-rule="evenodd" clip-rule="evenodd" d="M109.152 73.227L120.73 78.4085L121.009 77.6022L109.431 72.4206L109.152 73.227Z" fill="#007231"/>
<path fill-rule="evenodd" clip-rule="evenodd" d="M100.839 97.0141L112.417 102.196L112.697 101.389L101.119 96.2078L100.839 97.0141Z" fill="#007231"/>
</svg>
