<svg width="113" height="148" viewBox="0 0 113 148" fill="none" xmlns="http://www.w3.org/2000/svg">
<path d="M65.3601 108.624C77.3489 108.624 87.0678 93.231 87.0678 74.2427C87.0678 55.2544 77.3489 39.8613 65.3601 39.8613C53.3713 39.8613 43.6523 55.2544 43.6523 74.2427C43.6523 93.231 53.3713 108.624 65.3601 108.624Z" fill="white"/>
<path d="M58.4706 148L40.9562 129.451C40.0891 130.336 38.9541 131.04 37.6299 131.525C35.4701 132.313 33.0266 132.397 30.788 131.779C28.5495 131.161 26.7366 129.9 25.7119 128.227C24.6872 126.566 24.5768 124.687 25.3808 122.966L26.5632 120.444C26.3425 120.274 26.1533 120.092 25.9957 119.886C25.3966 119.147 25.1917 118.262 25.4439 117.413C25.6962 116.552 26.374 115.813 27.3514 115.352C27.4144 115.316 27.4933 115.292 27.5721 115.255L24.435 111.933L32.1439 108.284L38.7176 94.2457C38.9068 92.5606 39.6793 90.9724 40.9719 89.6025C41.0035 89.5661 41.035 89.5177 41.0508 89.4813C40.8458 88.172 40.7512 86.8021 40.7512 85.3715C40.7512 84.9108 40.767 84.4501 40.7828 83.9895L36.6051 84.8018L27.5249 74.9213L12.3909 71.6117L10.9406 59.5613L0 50.8689L6.55799 39.8853L2.72723 28.15L15.5753 21.1671L19.879 9.52881L35.549 8.4135L46.8521 0L61.1347 5.04322L76.3949 2.09729L85.4752 11.9777L100.609 15.2873L102.06 27.3378L113 36.0301L106.442 47.0137L110.273 58.749L97.4247 65.7319L93.121 77.3702L90.5198 77.5521C90.4883 80.3889 90.0312 83.0681 89.2587 85.1169C88.8331 86.2201 88.3285 87.1052 87.7452 87.8083C89.0852 88.6206 90.1888 89.6632 90.9928 90.8634C91.3869 91.2513 91.7338 91.6635 92.0175 92.112L100.183 104.866C100.215 104.926 100.262 104.987 100.294 105.035C100.325 105.072 100.341 105.108 100.373 105.132C101.492 106.757 101.744 108.612 101.082 110.382C100.42 112.152 98.9223 113.619 96.8572 114.54L96.6996 114.613L90.4882 116.528L97.1566 122.687L58.4706 148ZM39.7266 121.523L59.3534 142.326L90.047 122.238L82.9056 115.643L84.0248 114.904L83.8357 114.407L94.4451 111.121C96.2738 110.248 96.9045 108.442 95.8798 106.975L95.7537 106.805L95.7064 106.708C95.6906 106.672 95.659 106.623 95.6275 106.587L87.4616 93.8335C87.3197 93.6032 87.1304 93.3971 86.9097 93.2031L86.6891 92.997L86.5471 92.7546C85.3963 90.8876 82.937 89.6874 80.2571 89.6874H75.0548L73.3365 85.4079V80.692L74.0774 80.1222C74.4873 79.807 74.8499 79.4676 75.1652 79.116L82.5744 70.751L82.5431 77.2005C82.5431 80.8981 83.3154 83.5773 83.9933 84.923C84.6869 83.5773 85.4437 80.8981 85.4437 77.2005C85.4437 76.7519 85.4279 76.3034 85.4121 75.867L85.3176 74.0242L89.1798 73.7454L93.0263 63.3558L104.503 57.1245L101.082 46.65L106.946 36.8303L97.1724 29.0714L95.8798 18.3181L82.3695 15.3601L74.2666 6.53442L60.646 9.16513L47.8768 4.65527L37.7875 12.1717L23.8044 13.1658L19.9578 23.5554L8.48131 29.7867L11.9022 40.2611L6.03783 50.0809L15.8118 57.8397L17.1045 68.5931L30.6147 71.5511L38.7176 80.3768L46.5053 78.8735L46.0639 81.674C45.8747 82.8499 45.7959 84.0865 45.7959 85.3715C45.7959 86.8748 45.922 88.3054 46.1584 89.6389L46.3004 90.4027L45.7171 91.033C45.591 91.1785 45.4806 91.3241 45.386 91.4695L45.2756 91.6513L45.118 91.8089C44.2667 92.6697 43.778 93.688 43.715 94.7549L43.6992 95.0458L43.5731 95.3126L36.2899 110.879L31.7182 113.049L34.1774 115.655L30.1417 124.287C29.7949 125.039 29.8423 125.851 30.2837 126.578C30.7251 127.306 31.5132 127.851 32.4906 128.118C33.468 128.385 34.5243 128.348 35.4701 128.009C36.416 127.669 37.1255 127.063 37.4723 126.312L39.7266 121.523ZM78.7753 85.7959H79.0274C78.9328 85.5777 78.8383 85.3594 78.7437 85.129C78.6176 84.7896 78.4915 84.426 78.3812 84.0501V84.826L78.7753 85.7959ZM54.5925 89.6874H48.4443L48.6335 87.6144C48.6965 86.887 48.7281 86.1232 48.7281 85.3715C48.7281 84.3653 48.665 83.3712 48.5547 82.4256L48.0187 77.9764L54.3245 81.7346C54.6241 81.9164 54.9708 82.0861 55.3334 82.2559L56.5946 82.8135V89.251L55.1758 88.2811L54.5925 89.6874Z" fill="white"/>
<path d="M109.954 36.4307L103.743 46.8324L107.369 57.9372L95.2142 64.5444L91.147 75.5523L76.3126 76.6191L65.6243 84.5719L52.0983 79.7954L37.6581 82.5837L29.0664 73.2367L14.7364 70.109L13.3649 58.701L3.02344 50.4815L9.23465 40.0798L5.60884 28.9749L17.7633 22.3678L21.8305 11.3478L36.6649 10.2931L47.3532 2.32812L60.8792 7.1168L75.3194 4.32848L83.9112 13.6754L98.2411 16.8032L99.6126 28.1991L109.954 36.4307Z" fill="#163029"/>
<path d="M80.2477 117.633H50.6737C45.4399 117.633 41.1992 114.372 41.1992 110.347V95.0477C41.1992 91.0228 45.4399 87.7617 50.6737 87.7617H80.2477C85.4815 87.7617 89.7221 91.0228 89.7221 95.0477V110.347C89.7379 114.36 85.4815 117.633 80.2477 117.633Z" fill="#FFD600"/>
<path d="M27.766 123.619L42.8842 91.3229C44.0823 88.7527 47.7711 87.4192 51.1132 88.3405C54.4552 89.2619 56.1894 92.0987 54.9913 94.6688L39.8731 126.965C38.675 129.535 34.9862 130.869 31.6441 129.948C28.3021 129.014 26.5679 126.189 27.766 123.619Z" fill="#82665A"/>
<path d="M43.9079 118.568L55.1638 94.5156C56.3934 91.897 54.6278 89.0238 51.2227 88.0782C47.8175 87.1326 44.0814 88.4904 42.8518 91.109L31.3438 115.719L43.9079 118.568Z" fill="#FFD600"/>
<path d="M89.7155 92.9736C88.1391 90.5247 84.2926 89.5184 81.1081 90.7307C77.9237 91.943 76.6153 94.9011 78.1917 97.35L86.3419 110.092C87.871 112.492 91.6074 113.51 94.776 112.407C98.0866 111.255 99.4896 108.225 97.8816 105.727L89.7155 92.9736Z" fill="#FFD600"/>
<path d="M65.1936 95.8086L62.0565 97.421L57.8789 113.254L63.6329 120.225L70.5062 113.763L68.2519 97.8695L65.1936 95.8086Z" fill="#163029"/>
<path d="M30.5134 119.291C31.3266 118.902 31.5683 118.07 31.0533 117.434C30.5382 116.797 29.4614 116.596 28.6482 116.985C27.835 117.374 27.5933 118.206 28.1084 118.842C28.6235 119.479 29.7002 119.68 30.5134 119.291Z" fill="#FCF1D9"/>
<path d="M33.3377 120.949C34.1509 120.56 34.3926 119.729 33.8775 119.092C33.3624 118.455 32.2857 118.254 31.4725 118.643C30.6593 119.032 30.4175 119.864 30.9326 120.501C31.4477 121.137 32.5245 121.338 33.3377 120.949Z" fill="#FCF1D9"/>
<path d="M36.1541 122.598C36.9673 122.209 37.209 121.377 36.6939 120.74C36.1788 120.104 35.102 119.903 34.2888 120.292C33.4756 120.681 33.234 121.512 33.749 122.149C34.2641 122.786 35.3409 122.987 36.1541 122.598Z" fill="#FCF1D9"/>
<path d="M39.0133 123.978C39.8265 123.589 40.0682 122.758 39.5531 122.121C39.0381 121.484 37.9613 121.284 37.1482 121.673C36.335 122.062 36.0933 122.893 36.6084 123.53C37.1234 124.167 38.2001 124.367 39.0133 123.978Z" fill="#FCF1D9"/>
<path d="M41.8143 125.299C42.6275 124.91 42.8691 124.078 42.3541 123.441C41.839 122.805 40.7622 122.604 39.949 122.993C39.1358 123.382 38.8941 124.213 39.4092 124.85C39.9242 125.487 41.0011 125.688 41.8143 125.299Z" fill="#FCF1D9"/>
<path d="M47.2564 96.3567C44.1665 96.3567 42.5586 90.8285 42.5586 85.361C42.5586 79.8934 44.1823 74.3652 47.2564 74.3652C50.3463 74.3652 51.97 79.8934 51.97 85.361C51.9542 90.8285 50.3463 96.3567 47.2564 96.3567ZM47.2564 75.4806C45.9322 75.4806 43.9931 79.3357 43.9931 85.361C43.9931 91.3983 45.9322 95.2414 47.2564 95.2414C48.5806 95.2414 50.5197 91.3862 50.5197 85.361C50.5197 79.3357 48.5806 75.4806 47.2564 75.4806Z" fill="#FCF1D9"/>
<path d="M83.9907 88.1965C80.9009 88.1965 79.293 82.6683 79.293 77.2008C79.293 71.7333 80.9167 66.2051 83.9907 66.2051C87.0805 66.2051 88.7042 71.7333 88.7042 77.2008C88.7042 82.6562 87.0805 88.1965 83.9907 88.1965ZM83.9907 67.3204C82.6665 67.3204 80.7276 71.1756 80.7276 77.2008C80.7276 83.2381 82.6665 87.0812 83.9907 87.0812C85.3149 87.0812 87.254 83.226 87.254 77.2008C87.254 71.1635 85.3149 67.3204 83.9907 67.3204Z" fill="#FCF1D9"/>
<path d="M64.9482 96.4871C58.9261 96.4871 54.0391 92.729 54.0391 88.0979V81.2969H75.8573V88.0979C75.8573 92.729 70.9703 96.4871 64.9482 96.4871Z" fill="#664C42"/>
<path d="M60.4297 92.0898L69.8724 92.7688L68.2487 97.8726L62.0533 97.4241L60.4297 92.0898Z" fill="#163029"/>
<path d="M52.7266 87.7467L53.9089 84.8008L64.9757 92.402L57.4401 102.379L52.7266 87.7467Z" fill="#FFD600"/>
<path d="M76.9171 87.7467L75.7347 84.8008L65.1094 92.402L72.1877 102.379L76.9171 87.7467Z" fill="#FFD600"/>
<path d="M85.8215 70.5227L77.2455 80.2092C75.4641 82.2216 72.6896 83.6037 69.5525 84.0037L61.8909 85.01C58.6592 85.4343 55.3486 84.7917 52.7632 83.2521L41.1763 76.3419C38.8589 74.9598 37.3139 72.9716 36.8095 70.7531L34.3187 59.5148C32.7423 52.4107 38.9535 45.6702 48.1915 44.4579L65.6429 42.1666C74.8809 40.9542 83.646 45.7308 85.2225 52.835L87.6974 63.952C88.2019 66.2433 87.5241 68.5951 85.8215 70.5227Z" fill="#82665A"/>
<path d="M63.3106 77.1388L58.6602 76.4235L58.8651 75.6597L63.2318 76.3265L68.308 75.0051L70.184 72.9805L71.0194 73.429L68.9385 75.6597L63.3106 77.1388Z" fill="#163029"/>
<path d="M46.278 72.6936C52.9036 72.6936 58.2748 68.5631 58.2748 63.4679C58.2748 58.3727 52.9036 54.2422 46.278 54.2422C39.6524 54.2422 34.2812 58.3727 34.2812 63.4679C34.2812 68.5631 39.6524 72.6936 46.278 72.6936Z" fill="#163029"/>
<path d="M75.3249 68.8735C81.9506 68.8735 87.3217 64.743 87.3217 59.6477C87.3217 54.5525 81.9506 50.4219 75.3249 50.4219C68.6993 50.4219 63.3281 54.5525 63.3281 59.6477C63.3281 64.743 68.6993 68.8735 75.3249 68.8735Z" fill="#163029"/>
<path d="M57.2121 62.0982L56.1875 61.1648C56.3609 61.0436 60.6331 58.3281 64.8264 60.0738L64.0698 61.1527C60.8223 59.795 57.2437 62.074 57.2121 62.0982Z" fill="#163029"/>
<path d="M73.3306 68.7391L83.6405 52.991C82.6789 52.2757 81.5597 51.6938 80.3458 51.2695L70.3984 68.0602C71.3443 68.3875 72.3217 68.6178 73.3306 68.7391Z" fill="#FCF1D9"/>
<path d="M45.4307 72.665L55.3782 57.4625C54.4639 56.6381 53.3604 55.9471 52.1465 55.4258L42.2305 72.1558C43.2552 72.4346 44.3272 72.6044 45.4307 72.665Z" fill="#FCF1D9"/>
<path d="M88.75 37.7174L87.2683 40.2148L88.1352 42.8698L85.2188 44.4579L84.2414 47.0886L80.6944 47.3432L78.1248 49.2587L74.8931 48.107L71.4249 48.7738L69.3756 46.5431L65.9389 45.7915L65.6078 43.0517L63.1328 41.0877L64.6147 38.5904L63.7476 35.9354L66.664 34.3473L67.6414 31.7165L71.1884 31.4619L73.758 29.5586L76.9898 30.6982L80.4579 30.0314L82.5074 32.2742L85.9439 33.0258L86.2751 35.7535L88.75 37.7174Z" fill="#FFD600"/>
<path d="M81.8748 38.6262L81.181 39.7779L81.5751 41.0145L80.2352 41.7419L79.7781 42.9664L78.1385 43.0754L76.9562 43.9605L75.4585 43.4392L73.8505 43.7423L72.9047 42.7117L71.3124 42.3602L71.1548 41.0993L70.0039 40.178L70.6976 39.0263L70.3034 37.8018L71.6435 37.0623L72.1006 35.85L73.7401 35.7287L74.9225 34.8438L76.4359 35.3772L78.0281 35.062L78.9741 36.1045L80.5664 36.444L80.724 37.717L81.8748 38.6262Z" fill="#FCF1D9"/>
<path d="M67.512 77.2045L64.0156 77.6641L64.1856 78.4288L67.682 77.9692L67.512 77.2045Z" fill="#163029"/>
<path d="M69.3986 74.4665L68.4727 75.1602L73.6539 79.2503L74.5799 78.5566L69.3986 74.4665Z" fill="#FCF1D9"/>
<path d="M64.2183 95.3477L93.5719 122.467L58.9057 145.162L28.0703 112.478L64.2183 95.3477Z" fill="#163029"/>
<path d="M66.2348 110.924L63.7597 112.367L61.0481 109.627L57.2647 108.754L53.5127 109.748L51.2583 112.258L51.3371 115.301L54.0328 118.04L51.5579 119.495L48.2472 116.125L48.1211 111.53L51.5421 107.748L57.1858 106.232L62.9241 107.566L66.2348 110.924Z" fill="#FF4B27"/>
<path d="M67.7739 110.017L49.7383 120.539L59.9524 130.893L77.988 120.371L67.7739 110.017Z" fill="#FF4B27"/>
<path d="M69.4044 116.347C71.17 118.711 75.1113 119.523 78.1854 118.165L95.2267 112.892C98.2377 111.558 99.3256 108.636 97.7018 106.284C95.9993 103.823 91.9636 102.926 88.8264 104.32L71.7849 109.594C68.695 110.952 67.623 113.983 69.4044 116.347Z" fill="#82665A"/>
<path d="M85.8755 115.861L95.555 112.867C98.6606 111.497 99.7798 108.478 98.093 106.054C96.3274 103.508 92.1812 102.599 88.9338 104.029L81.4141 106.357L85.8755 115.861Z" fill="#FFD600"/>
<path d="M83.3492 115.061C85.8828 115.061 87.9366 113.482 87.9366 111.534C87.9366 109.585 85.8828 108.006 83.3492 108.006C80.8157 108.006 78.7617 109.585 78.7617 111.534C78.7617 113.482 80.8157 115.061 83.3492 115.061Z" fill="#163029"/>
<path d="M82.9493 114.978L83.5482 116.566L86.9375 115.657L83.1069 105.68L79.8594 106.928L82.9493 114.978Z" fill="#163029"/>
</svg>
