<svg width="424" height="387" viewBox="0 0 424 387" fill="none" xmlns="http://www.w3.org/2000/svg">
<g id="New_crypto">
<path id="Path" d="M421.646 275.822C421.646 275.822 180.008 377.2 3 288.695" stroke="white" stroke-width="12"/>
<g id="Group 4">
<g id="Group 3">
<path id="Path_2" d="M260.196 112.089L254.282 108.63L257.352 115.648L250.144 113.06L253.21 120.078L245.999 117.497L249.849 123.164L243.457 125.629L250.854 127.605L244.34 131.631L251.74 133.61L245.226 137.636L252.057 138.156L249.997 144.692L256.156 140.139L255.242 147.744L261.399 143.191L260.488 150.796L265.153 145.779L268.979 151.464L269.26 143.81L274.636 149.266L274.917 141.616L280.293 147.069L279.28 140.294L286.108 140.846L280.3 135.853L287.919 135.055L282.11 130.063L289.726 129.261L283.798 125.826L288.488 120.833L280.964 122.261L285.088 115.809L277.564 117.237L281.689 110.782L275.304 113.274L274.326 106.496L270.751 113.267L268.276 106.021L264.7 112.793L260.171 106.018L260.196 112.089Z" fill="#FFD600"/>
<path id="Path_3" d="M234.52 14.4256L226.866 3.9659L214.525 0L202.213 4.04676L194.629 14.5592L194.671 27.5222L202.325 37.9819L214.662 41.9478L226.978 37.9011L234.562 27.3886L234.52 14.4256Z" fill="#FFD600"/>
<path id="Rectangle" d="M200.203 155.064L225.497 139.556L233.251 152.201L207.957 167.71L200.203 155.064Z" fill="white"/>
<path id="Rectangle_2" d="M295.293 66.3867L309.444 61.9367L318.345 90.2423L304.194 94.6923L295.293 66.3867Z" fill="#15F8FF"/>
<path id="Path_4" d="M217.823 80.7832L201.389 88.6939L197.332 106.474L208.702 120.734H226.939L238.309 106.474L234.252 88.6939L217.823 80.7832Z" fill="#FF4B27"/>
<path id="Path_5" d="M256.206 48.6602L239.59 54.609L234.91 67.7267L258.066 80.4647L268.146 55.829L256.206 48.6602Z" fill="#009047"/>
<path id="Path_6" d="M163.878 44.5L128.329 52.8291L115.637 78.6883L160.235 110.306L186.735 62.0336L163.878 44.5Z" fill="white"/>
</g>
<g id="Group">
<g id="Group_2">
<path id="Path_7" d="M204.9 207L142.297 268.021L142.381 324.17L175.452 369.542L228.875 386.816L282.246 369.387L315.183 323.913L315.102 267.768L252.498 207H204.9Z" fill="#FF4B27"/>
<path id="Path_8" d="M202.173 218.234L173.016 170.963H232.458V218.234H202.173Z" fill="#FF4B27"/>
<path id="Path_9" d="M252.399 218.234L281.556 170.963H222.113V218.234H252.399Z" fill="#FF4B27"/>
</g>
<g id="Group_3">
<path id="Path_10" d="M248.992 255.301L219.596 255.248L195.783 272.486L186.652 300.427L195.685 328.403L219.438 345.722L248.83 345.775L272.643 328.536L281.778 300.596L272.745 272.623L248.992 255.301Z" fill="#163029"/>
<path id="Path_11" d="M241.41 255.301L212.014 255.248L188.201 272.486L179.07 300.427L188.103 328.403L211.856 345.722L241.252 345.775L265.065 328.536L274.196 300.596L265.163 272.623L241.41 255.301Z" fill="#FFD600"/>
</g>
<rect id="Rectangle_3" x="195.438" y="207.373" width="65.374" height="8.01618" fill="#FFD600"/>
<path id="Rectangle_4" d="M256.492 209.98L268.782 246.017L261.195 248.604L248.905 212.568L256.492 209.98Z" fill="#FFD600"/>
<path id="Rectangle_5" d="M255.23 210.625L243.283 246.776L235.672 244.26L247.619 208.11L255.23 210.625Z" fill="#FFD600"/>
<g id="$">
<path d="M228.984 335.927L229.054 327.269C234.994 326.069 238.37 321.328 238.101 314.381C237.845 307.758 235.319 303.083 228.903 296.132C222.741 289.495 221.613 287.516 221.489 284.285C221.367 281.135 222.519 279.554 224.781 279.466C227.527 279.36 228.736 281.336 229.34 288.592L237.457 287.227C236.822 279.163 234.379 274.566 229.946 272.876L230.078 265.834L222.551 265.72L222.484 272.356C216.464 273.559 212.764 278.313 213.039 285.42C213.282 291.72 215.281 295.283 222.707 303.247C228.445 309.416 229.66 311.553 229.795 315.026C229.929 318.499 228.783 320.242 226.521 320.329C223.694 320.439 222.476 318.221 221.773 310.482L213.339 312.022C214.076 320.648 216.767 325.398 221.602 326.991L221.457 335.813L228.984 335.927Z" fill="black"/>
<path d="M228.984 335.927L229.054 327.269C234.994 326.069 238.37 321.328 238.101 314.381C237.845 307.758 235.319 303.083 228.903 296.132C222.741 289.495 221.613 287.516 221.489 284.285C221.367 281.135 222.519 279.554 224.781 279.466C227.527 279.36 228.736 281.336 229.34 288.592L237.457 287.227C236.822 279.163 234.379 274.566 229.946 272.876L230.078 265.834L222.551 265.72L222.484 272.356C216.464 273.559 212.764 278.313 213.039 285.42C213.282 291.72 215.281 295.283 222.707 303.247C228.445 309.416 229.66 311.553 229.795 315.026C229.929 318.499 228.783 320.242 226.521 320.329C223.694 320.439 222.476 318.221 221.773 310.482L213.339 312.022C214.076 320.648 216.767 325.398 221.602 326.991L221.457 335.813L228.984 335.927Z" fill="#009845"/>
</g>
</g>
</g>
</g>
</svg>
