<svg width="156" height="53" viewBox="0 0 156 53" fill="none" xmlns="http://www.w3.org/2000/svg">
<path d="M154.631 10.9923C154.631 10.6016 154.631 10.1979 154.631 9.7942C154.618 8.92133 154.54 8.05066 154.398 7.18953C154.249 6.33056 153.979 5.49738 153.597 4.7151C153.195 3.93617 152.677 3.22451 152.059 2.60532C151.445 1.98659 150.738 1.46812 149.966 1.06856C149.187 0.675224 148.356 0.398806 147.498 0.248092C146.643 0.104867 145.779 0.0265068 144.913 0.0136719H9.71913C8.85306 0.0270894 7.98918 0.105446 7.13465 0.248092C6.28027 0.396894 5.45273 0.673433 4.6794 1.06856C3.9047 1.46495 3.19795 1.98377 2.58597 2.60532C1.96521 3.21857 1.44991 3.93154 1.06113 4.7151C0.669068 5.49447 0.394672 6.32848 0.247024 7.18953C0.102816 8.05018 0.0293399 8.92136 0.0273438 9.7942C0.0273437 10.1979 0.0273438 10.6016 0.0273438 10.9923V41.1023C0.0273438 41.506 0.0273438 41.8967 0.0273438 42.3004C0.0293399 43.1733 0.102816 44.0445 0.247024 44.9051C0.394554 45.7703 0.668924 46.6087 1.06113 47.3926C1.45351 48.17 1.96849 48.8781 2.58597 49.4893C3.19447 50.1149 3.90192 50.6343 4.6794 51.0261C5.45273 51.4212 6.28027 51.6978 7.13465 51.8466C7.98918 51.9892 8.85306 52.0676 9.71913 52.081H144.913C145.779 52.0681 146.643 51.9898 147.498 51.8466C148.356 51.6958 149.187 51.4194 149.966 51.0261C150.741 50.6309 151.448 50.1119 152.059 49.4893C152.669 48.8713 153.183 48.1645 153.584 47.3926C153.966 46.6057 154.236 45.7682 154.385 44.9051C154.527 44.044 154.605 43.1733 154.618 42.3004C154.618 41.8967 154.618 41.506 154.618 41.1023V10.9923H154.631ZM153.506 39.6437C153.506 40.1255 153.506 40.5814 153.506 41.0502V42.2614C153.49 43.0687 153.416 43.8738 153.287 44.6707C153.164 45.4269 152.929 46.1601 152.589 46.8456C152.256 47.5142 151.82 48.1252 151.297 48.6558C150.77 49.1884 150.158 49.6285 149.488 49.9582C148.81 50.3463 148.078 50.6274 147.317 50.7917C146.518 50.9272 145.71 50.9969 144.9 51H143.737H10.908H9.74497C8.93519 50.9969 8.12702 50.9272 7.32849 50.7917C6.57411 50.6425 5.84651 50.3791 5.17045 50.0103C4.50392 49.68 3.89683 49.2398 3.37424 48.7079C2.84584 48.1769 2.4091 47.5606 2.082 46.8847C1.73785 46.2045 1.49821 45.4755 1.37127 44.7228C1.23989 43.9176 1.17076 43.1034 1.16451 42.2874C1.16451 42.0139 1.16451 41.0893 1.16451 41.0893V10.9923C1.16451 10.9923 1.16451 10.0937 1.16451 9.83327C1.17024 9.01728 1.23937 8.20301 1.37127 7.3979C1.48956 6.63646 1.725 5.89828 2.06908 5.20998C2.39339 4.53234 2.83046 3.91567 3.36132 3.38672C3.89312 2.85998 4.50357 2.42053 5.17045 2.08438C5.84538 1.73755 6.56867 1.49603 7.31556 1.3681C8.11875 1.23502 8.93102 1.16535 9.74497 1.15973H144.9C145.705 1.16659 146.509 1.23626 147.304 1.3681C148.054 1.49877 148.781 1.74012 149.462 2.08438C150.802 2.76773 151.892 3.86214 152.576 5.20998C152.912 5.88781 153.147 6.61188 153.274 7.35883C153.403 8.16889 153.476 8.98697 153.494 9.80722V10.9663C153.494 11.4612 153.494 11.93 153.494 12.3989L153.506 39.6437Z" fill="#FCF0D8"/>
<path d="M32.3051 25.9041C32.3194 24.7733 32.6172 23.6646 33.1707 22.681C33.7242 21.6974 34.5155 20.8707 35.4711 20.278C34.8634 19.4054 34.0624 18.6874 33.1315 18.1811C32.2007 17.6747 31.1656 17.3938 30.1083 17.3607C27.8469 17.1133 25.663 18.6631 24.5129 18.6631C23.3628 18.6631 21.5666 17.3607 19.667 17.3607C18.4337 17.4022 17.2318 17.7631 16.1771 18.4086C15.1224 19.0542 14.2504 19.9626 13.6452 21.0464C11.0607 25.5915 12.9861 32.2464 15.4802 35.919C16.7724 37.7162 18.1809 39.7088 20.0805 39.6437C21.9801 39.5786 22.665 38.4455 24.9006 38.4455C27.1361 38.4455 27.7823 39.6437 29.7206 39.6046C31.659 39.5655 32.9771 37.7944 34.1788 35.9841C35.0573 34.7224 35.7332 33.3292 36.1818 31.8557C35.0321 31.35 34.0533 30.518 33.3649 29.4611C32.6765 28.4043 32.3082 27.1683 32.3051 25.9041V25.9041Z" fill="#FCF0D8"/>
<path d="M28.6348 14.9501C29.7183 13.6267 30.255 11.934 30.1338 10.2227C28.4754 10.4 26.9439 11.1997 25.8436 12.4627C24.7528 13.7172 24.1998 15.3562 24.3058 17.0208C25.135 17.0231 25.9541 16.8382 26.7032 16.4799C27.4523 16.1216 28.1123 15.5989 28.6348 14.9501V14.9501Z" fill="#FCF0D8"/>
<path d="M50.2814 23.5469L44.4922 39.7219H47.0767L48.5498 35.346H54.6621L56.1352 39.7219H58.7197L52.9822 23.5469H50.2814ZM49.183 33.3274L51.5736 26.2297H51.6899L54.0806 33.3274H49.183Z" fill="#FCF0D8"/>
<path d="M66.3575 27.804C65.5998 27.7854 64.8515 27.9758 64.1934 28.3545C63.5352 28.7332 62.9922 29.2858 62.6229 29.9528V29.9528V27.9212H60.2969V43.6143H62.7004V37.7668C63.0631 38.4216 63.6001 38.9611 64.2509 39.3247C64.9016 39.6883 65.6402 39.8614 66.3833 39.8245C69.3167 39.8245 71.268 37.4673 71.268 33.8077C71.268 30.1482 69.3167 27.804 66.3575 27.804ZM65.7243 37.7668C63.8893 37.7668 62.6487 36.165 62.6487 33.7947C62.6487 31.4245 63.941 29.8877 65.7243 29.8877C67.5076 29.8877 68.8127 31.4635 68.8127 33.7947C68.8127 36.1259 67.5851 37.7668 65.7243 37.7668Z" fill="#FCF0D8"/>
<path d="M79.2271 27.8056C78.4716 27.7895 77.726 27.981 77.0703 28.3595C76.4147 28.7381 75.8737 29.2895 75.5054 29.9545V29.9545V27.9228H73.1406V43.616H75.5313V37.7685C75.8928 38.4242 76.4296 38.9647 77.0806 39.3284C77.7316 39.6921 78.4708 39.8646 79.2141 39.8262C82.1475 39.8262 84.0859 37.4689 84.0859 33.8094C84.0859 30.1498 82.1992 27.8056 79.2271 27.8056ZM78.5939 37.7685C76.7589 37.7685 75.5313 36.1666 75.5313 33.7964C75.5313 31.4261 76.7589 29.8894 78.5939 29.8894C80.4288 29.8894 81.6823 31.4652 81.6823 33.7964C81.6823 36.1275 80.4676 37.7685 78.5939 37.7685Z" fill="#FCF0D8"/>
<path d="M97.8607 30.5782L96.0903 30.1485C94.0227 29.6275 93.1699 28.9503 93.1699 27.8173C93.1699 26.3717 94.4621 25.3949 96.4392 25.3949C98.4163 25.3949 99.6957 26.3717 99.8378 27.9996H102.267C102.19 25.1996 99.8637 23.2852 96.4651 23.2852C93.0665 23.2852 90.6242 25.1996 90.6242 27.9996C90.6242 30.2526 91.9939 31.6331 94.9402 32.3494L97.0207 32.8573C99.1012 33.3782 99.98 34.1596 99.98 35.3838C99.98 36.608 98.5197 37.8843 96.5038 37.8843C94.4879 37.8843 92.8468 36.8294 92.6271 35.2797H90.1719C90.3269 38.1969 92.7564 40.0462 96.2842 40.0462C100.083 40.0462 102.474 38.1578 102.474 35.1234C102.513 32.701 101.156 31.3596 97.8607 30.5782Z" fill="#FCF0D8"/>
<path d="M107.708 25.1348H105.292V27.9218H103.586V29.8362H105.292V36.5953C105.292 38.8874 106.209 39.786 108.587 39.786C109.02 39.789 109.453 39.7497 109.879 39.6688V37.7674C109.617 37.7836 109.353 37.7836 109.091 37.7674C108.109 37.7674 107.669 37.2986 107.669 36.2958V29.7841H109.892V27.9218H107.708V25.1348Z" fill="#FCF0D8"/>
<path d="M116.768 27.7793C113.382 27.7793 111.211 30.1105 111.211 33.8221C111.211 37.5338 113.369 39.865 116.768 39.865C120.166 39.865 122.311 37.5468 122.311 33.8221C122.311 30.0974 120.179 27.7793 116.768 27.7793ZM116.768 37.8724C114.816 37.8724 113.666 36.3747 113.666 33.8221C113.666 31.2695 114.816 29.7719 116.768 29.7719C118.719 29.7719 119.869 31.2565 119.869 33.8612C119.869 36.4659 118.706 37.8724 116.768 37.8724Z" fill="#FCF0D8"/>
<path d="M126.64 29.9546V27.923H124.301V39.7221H126.64V32.7286C126.591 32.3673 126.622 31.9995 126.732 31.6521C126.842 31.3046 127.028 30.9864 127.276 30.7205C127.523 30.4547 127.827 30.2479 128.164 30.1154C128.501 29.9829 128.863 29.928 129.224 29.9546C129.588 29.9391 129.952 29.9921 130.297 30.1109V27.8969C130.03 27.8317 129.757 27.8011 129.483 27.8058C128.835 27.7754 128.197 27.9732 127.678 28.3653C127.159 28.7575 126.792 29.3194 126.64 29.9546Z" fill="#FCF0D8"/>
<path d="M136.215 27.7793C132.92 27.7793 130.801 30.1756 130.801 33.8742C130.801 37.5728 132.907 39.865 136.306 39.865C138.89 39.865 141.022 38.3933 141.345 36.2575H139.071C138.857 36.789 138.479 37.2369 137.992 37.5348C137.506 37.8327 136.937 37.9648 136.37 37.9115C135.939 37.9278 135.508 37.8515 135.108 37.6876C134.708 37.5237 134.346 37.2759 134.048 36.9606C133.75 36.6454 133.522 36.2699 133.379 35.8591C133.235 35.4482 133.18 35.0114 133.217 34.5775V34.4212H141.488V33.6007C141.488 30.0193 139.446 27.7793 136.215 27.7793ZM133.23 32.7282C133.23 32.3343 133.308 31.9444 133.458 31.5808C133.608 31.2173 133.829 30.8873 134.106 30.6101C134.384 30.3328 134.713 30.1137 135.075 29.9653C135.437 29.817 135.824 29.7424 136.215 29.7458C136.602 29.7382 136.986 29.8108 137.343 29.9592C137.701 30.1075 138.024 30.3285 138.293 30.6082C138.562 30.888 138.771 31.2206 138.907 31.5853C139.043 31.95 139.104 32.339 139.084 32.7282H133.23Z" fill="#FCF0D8"/>
<path d="M52.5033 15.2378C52.5738 14.7305 52.531 14.2137 52.378 13.7253C52.225 13.2368 51.9656 12.789 51.6188 12.4145C51.272 12.04 50.8466 11.7484 50.3736 11.5609C49.9006 11.3734 49.392 11.2948 48.885 11.3308H46.0938V19.1448H48.885C51.1722 19.1448 52.5033 17.7122 52.5033 15.2378ZM47.3343 18.0378V12.4638H48.7816C49.1437 12.4368 49.5073 12.4919 49.8455 12.6252C50.1837 12.7584 50.4879 12.9664 50.7359 13.2337C50.9838 13.5011 51.1691 13.8211 51.2782 14.1702C51.3873 14.5192 51.4173 14.8885 51.3661 15.2508C51.4198 15.6135 51.3915 15.9838 51.2834 16.334C51.1753 16.6842 50.99 17.0052 50.7416 17.2732C50.4931 17.5412 50.1878 17.7491 49.8484 17.8815C49.509 18.0139 49.1443 18.0673 48.7816 18.0378H47.3343Z" fill="#FCF0D8"/>
<path d="M56.6137 13.166C56.2259 13.1515 55.8395 13.2223 55.4815 13.3734C55.1235 13.5245 54.8024 13.7523 54.5405 14.041C54.2786 14.3298 54.0822 14.6725 53.9649 15.0453C53.8476 15.4182 53.8122 15.8124 53.8613 16.2004C53.8354 16.5798 53.8873 16.9605 54.0136 17.3189C54.1399 17.6772 54.3379 18.0056 54.5954 18.2835C54.853 18.5615 55.1644 18.7831 55.5105 18.9346C55.8566 19.0862 56.2299 19.1644 56.6073 19.1644C56.9846 19.1644 57.3579 19.0862 57.704 18.9346C58.0501 18.7831 58.3616 18.5615 58.6191 18.2835C58.8766 18.0056 59.0747 17.6772 59.201 17.3189C59.3273 16.9605 59.3791 16.5798 59.3533 16.2004C59.4044 15.8131 59.3709 15.4192 59.2552 15.0463C59.1395 14.6733 58.9444 14.3304 58.6834 14.0414C58.4225 13.7524 58.1021 13.5243 57.7446 13.3731C57.3871 13.2219 57.0012 13.1512 56.6137 13.166ZM56.6137 18.219C55.6058 18.219 55.0501 17.4897 55.0501 16.2004C55.0501 14.9111 55.567 14.1948 56.6137 14.1948C57.6604 14.1948 58.1644 14.9372 58.1644 16.2004C58.1644 17.4637 57.6088 18.2321 56.6137 18.2321V18.219Z" fill="#FCF0D8"/>
<path d="M62.958 19.1437L64.1598 14.82H64.2502L65.452 19.1437H66.6409L68.2433 13.2832H67.0932L66.0594 17.7502H65.9689L64.7671 13.2832H63.6687L62.4669 17.7502H62.3894L61.3427 13.2832H60.1797L61.7821 19.1437H62.958Z" fill="#FCF0D8"/>
<path d="M73.3851 19.1447H74.5352V15.3419C74.5769 15.0589 74.5548 14.7701 74.4704 14.497C74.386 14.2239 74.2415 13.9735 74.0477 13.7644C73.854 13.5554 73.6159 13.3931 73.3513 13.2897C73.0867 13.1862 72.8023 13.1443 72.5193 13.167C72.1586 13.1346 71.7969 13.2179 71.486 13.405C71.175 13.5921 70.9306 13.8735 70.7877 14.2088H70.6973V13.2712H69.5859V19.1447H70.736V15.7065C70.7079 15.5117 70.7239 15.3131 70.7829 15.1254C70.8419 14.9378 70.9424 14.7661 71.0767 14.6232C71.211 14.4803 71.3757 14.37 71.5584 14.3004C71.7412 14.2309 71.9371 14.2041 72.1317 14.2219C72.9716 14.2219 73.4239 14.6907 73.4239 15.6414L73.3851 19.1447Z" fill="#FCF0D8"/>
<path d="M77.5095 10.9922H76.3594V19.1448H77.5095V10.9922Z" fill="#FCF0D8"/>
<path d="M81.8487 13.166C81.4613 13.1512 81.0753 13.2219 80.7178 13.3731C80.3603 13.5243 80.0399 13.7524 79.779 14.0414C79.5181 14.3304 79.3229 14.6733 79.2072 15.0463C79.0915 15.4192 79.0581 15.8131 79.1092 16.2004C79.0833 16.5798 79.1352 16.9605 79.2615 17.3189C79.3878 17.6772 79.5858 18.0056 79.8433 18.2835C80.1009 18.5615 80.4123 18.7831 80.7584 18.9346C81.1045 19.0862 81.4778 19.1644 81.8552 19.1644C82.2325 19.1644 82.6058 19.0862 82.9519 18.9346C83.298 18.7831 83.6095 18.5615 83.867 18.2835C84.1245 18.0056 84.3225 17.6772 84.4488 17.3189C84.5751 16.9605 84.627 16.5798 84.6012 16.2004C84.6502 15.8124 84.6148 15.4182 84.4975 15.0453C84.3802 14.6725 84.1838 14.3298 83.9219 14.041C83.66 13.7523 83.339 13.5245 82.9809 13.3734C82.6229 13.2223 82.2366 13.1515 81.8487 13.166V13.166ZM81.8487 18.219C80.8537 18.219 80.298 17.4897 80.298 16.2004C80.298 14.9111 80.8537 14.1948 81.8487 14.1948C82.8437 14.1948 83.4123 14.9372 83.4123 16.2004C83.4123 17.4637 82.8437 18.2321 81.8487 18.2321V18.219Z" fill="#FCF0D8"/>
<path d="M90.6893 19.1437V15.1325C90.6893 13.8953 89.8623 13.166 88.4021 13.166C86.9419 13.166 86.1536 13.8042 86.0244 14.82H87.1486C87.2649 14.4032 87.7172 14.1688 88.3504 14.1688C88.9836 14.1688 89.5522 14.5204 89.5522 15.1325V15.6274L87.9756 15.7186C86.58 15.8098 85.8047 16.4088 85.8047 17.4637C85.8052 17.7114 85.8572 17.9562 85.9574 18.1823C86.0576 18.4085 86.2038 18.6109 86.3865 18.7766C86.5691 18.9423 86.7842 19.0675 87.0179 19.1442C87.2516 19.2209 87.4986 19.2474 87.743 19.2219C88.0895 19.2404 88.4345 19.1643 88.7416 19.0016C89.0487 18.8388 89.3064 18.5954 89.4876 18.2972H89.578V19.1307L90.6893 19.1437ZM89.5522 16.9298C89.5427 17.1171 89.4954 17.3005 89.4132 17.4688C89.331 17.6371 89.2156 17.7868 89.0742 17.9087C88.9327 18.0305 88.768 18.1221 88.5903 18.1777C88.4125 18.2333 88.2253 18.2518 88.0403 18.2321C87.42 18.2321 86.9548 17.9326 86.9548 17.3986C86.9548 16.8646 87.3295 16.6042 88.1307 16.5521L89.5522 16.4609V16.9298Z" fill="#FCF0D8"/>
<path d="M94.6196 19.236C94.985 19.2511 95.3476 19.1658 95.6686 18.9891C95.9895 18.8125 96.2568 18.5512 96.4417 18.2332H96.5321V19.1578H97.6305V10.9922H96.4804V14.209H96.4029C96.2324 13.8852 95.9744 13.6168 95.6588 13.4347C95.3432 13.2527 94.9829 13.1644 94.6196 13.1801C93.1465 13.1801 92.2031 14.3522 92.2031 16.2015C92.2031 18.0508 93.1335 19.236 94.6196 19.236ZM94.9427 14.222C95.8989 14.222 96.5063 14.9904 96.5063 16.2145C96.5063 17.4387 95.9119 18.2332 94.9427 18.2332C93.9735 18.2332 93.392 17.4908 93.392 16.2406C93.392 14.9904 93.9735 14.222 94.9427 14.222Z" fill="#FCF0D8"/>
<path d="M107.877 16.2003C107.903 15.8209 107.851 15.4402 107.725 15.0818C107.599 14.7235 107.401 14.3951 107.143 14.1172C106.886 13.8392 106.574 13.6176 106.228 13.466C105.882 13.3145 105.509 13.2363 105.131 13.2363C104.754 13.2363 104.381 13.3145 104.035 13.466C103.689 13.6176 103.377 13.8392 103.12 14.1172C102.862 14.3951 102.664 14.7235 102.538 15.0818C102.411 15.4402 102.36 15.8209 102.385 16.2003C102.36 16.5796 102.411 16.9603 102.538 17.3187C102.664 17.677 102.862 18.0054 103.12 18.2834C103.377 18.5613 103.689 18.7829 104.035 18.9345C104.381 19.086 104.754 19.1642 105.131 19.1642C105.509 19.1642 105.882 19.086 106.228 18.9345C106.574 18.7829 106.886 18.5613 107.143 18.2834C107.401 18.0054 107.599 17.677 107.725 17.3187C107.851 16.9603 107.903 16.5796 107.877 16.2003V16.2003ZM103.574 16.2003C103.574 14.8979 104.13 14.1947 105.125 14.1947C106.12 14.1947 106.689 14.937 106.689 16.2003C106.689 17.4635 106.12 18.2319 105.125 18.2319C104.13 18.2319 103.574 17.4896 103.574 16.2003Z" fill="#FCF0D8"/>
<path d="M113.2 15.6272V19.1435H114.35V15.3407C114.392 15.0589 114.37 14.7714 114.286 14.4993C114.202 14.2272 114.059 13.9775 113.867 13.7687C113.675 13.56 113.438 13.3974 113.175 13.293C112.912 13.1887 112.629 13.1452 112.347 13.1658C111.985 13.1366 111.623 13.221 111.311 13.4076C110.999 13.5942 110.751 13.8737 110.603 14.2077H110.512V13.27H109.414V19.1435H110.564V15.7054C110.536 15.5118 110.552 15.3143 110.61 15.1278C110.669 14.9412 110.768 14.7702 110.901 14.6276C111.034 14.4849 111.197 14.3743 111.378 14.3039C111.559 14.2334 111.753 14.205 111.947 14.2207C112.8 14.2207 113.2 14.6896 113.2 15.6272Z" fill="#FCF0D8"/>
<path d="M119.7 17.5949C119.7 18.7279 120.204 19.1707 121.483 19.1707C121.69 19.1852 121.897 19.1852 122.103 19.1707V18.207H121.664C121.096 18.207 120.85 17.9335 120.85 17.3214V14.326H122.142V13.3623H120.85V11.8125H119.7V13.3102H118.77V14.326H119.7V17.5949Z" fill="#FCF0D8"/>
<path d="M124.818 15.7197C124.803 15.5207 124.83 15.3207 124.898 15.1335C124.967 14.9462 125.075 14.7762 125.215 14.6351C125.355 14.4939 125.524 14.3851 125.71 14.316C125.895 14.247 126.094 14.2193 126.291 14.235C127.092 14.235 127.583 14.7038 127.583 15.6415V19.1448H128.734V15.355C128.774 15.0649 128.749 14.7692 128.66 14.4904C128.57 14.2116 128.419 13.957 128.217 13.7461C128.015 13.5351 127.768 13.3733 127.495 13.273C127.222 13.1727 126.929 13.1365 126.64 13.1671C126.273 13.1352 125.905 13.2198 125.587 13.4089C125.27 13.598 125.019 13.8822 124.87 14.222H124.779V10.9922H123.668V19.1448H124.818V15.7197Z" fill="#FCF0D8"/>
<path d="M132.856 19.248C133.417 19.3266 133.987 19.1987 134.462 18.8877C134.936 18.5767 135.284 18.1035 135.44 17.555H134.342C134.205 17.799 133.999 17.997 133.751 18.1243C133.503 18.2516 133.223 18.3027 132.946 18.2713C132.732 18.274 132.52 18.2314 132.324 18.1462C132.128 18.061 131.951 17.9351 131.806 17.7766C131.661 17.6182 131.551 17.4308 131.482 17.2265C131.414 17.0223 131.389 16.8059 131.409 16.5912V16.5261H135.505V16.1224C135.505 14.2731 134.536 13.1661 132.921 13.1661C132.536 13.1628 132.156 13.2427 131.804 13.4002C131.453 13.5578 131.14 13.7894 130.885 14.0795C130.63 14.3696 130.44 14.7113 130.328 15.0817C130.215 15.4521 130.183 15.8425 130.233 16.2266C130.172 16.6052 130.194 16.9926 130.299 17.3614C130.404 17.7301 130.588 18.0709 130.839 18.3595C131.089 18.6482 131.4 18.8775 131.749 19.0311C132.097 19.1846 132.475 19.2587 132.856 19.248ZM132.856 14.1429C133.048 14.1409 133.238 14.1783 133.414 14.2529C133.591 14.3275 133.751 14.4377 133.884 14.5766C134.017 14.7156 134.121 14.8805 134.188 15.0612C134.256 15.2419 134.286 15.4346 134.277 15.6275H131.344C131.346 15.4308 131.386 15.2364 131.462 15.0554C131.538 14.8743 131.649 14.7102 131.788 14.5723C131.928 14.4344 132.092 14.3256 132.273 14.2519C132.454 14.1782 132.648 14.1411 132.843 14.1429H132.856Z" fill="#FCF0D8"/>
</svg>
