<svg width="131" height="40" viewBox="0 0 131 40" fill="none" xmlns="http://www.w3.org/2000/svg">
<path d="M51.9404 26.8309C51.9404 28.7893 51.4002 30.3055 50.3359 31.3393C49.3578 32.2886 47.9449 32.7895 46.2502 32.7895C44.5555 32.7895 43.1354 32.2876 42.1523 31.3383C41.0809 30.3075 40.5376 28.7872 40.5376 26.8309V15.0156H36.9141V27.1319C36.9141 30.0251 37.8871 32.4113 39.7278 34.0377C41.3698 35.4859 43.6858 36.2837 46.2482 36.2837C48.8105 36.2837 51.1134 35.4859 52.7594 34.0388C54.6052 32.4133 55.5812 30.0272 55.5812 27.1329V15.0156H51.9404V26.8309Z" fill="#60269E"/>
<path d="M68.9965 14.5941C67.7015 14.5835 66.4183 14.8443 65.2262 15.3602C64.1687 15.8238 63.2333 16.5349 62.4956 17.4359V14.9983H58.9023V35.8618H62.5371V24.1272C62.5371 22.3443 63.1348 20.8274 64.2665 19.7262C65.3334 18.695 66.811 18.1227 68.4261 18.1227C71.9404 18.1227 73.956 20.2799 73.956 24.0416V35.8618H77.5695V22.9867C77.5695 17.9639 74.1239 14.5941 68.9965 14.5941Z" fill="#60269E"/>
<path fill-rule="evenodd" clip-rule="evenodd" d="M89.9892 14.7362C92.9188 14.7362 95.3755 15.7693 97.1464 17.7453V4.58984H100.801V35.8766H97.1464V33.2775C95.3878 35.2463 92.928 36.2835 89.9892 36.2835C84.0911 36.2835 79.6445 31.6315 79.6445 25.4975C79.6445 19.3636 84.0911 14.7362 89.9892 14.7362ZM85.3082 30.6774C86.5908 32.0508 88.3872 32.8061 90.3679 32.8061C92.3261 32.8061 94.1154 32.0559 95.3785 30.7174C96.6417 29.3789 97.3367 27.5136 97.3367 25.4905C97.3367 23.4673 96.6519 21.6287 95.3795 20.283C94.1072 18.9373 92.3281 18.1953 90.371 18.1953C88.3759 18.1953 86.5733 18.9507 85.2948 20.322C84.0501 21.6584 83.3633 23.4899 83.3633 25.4905C83.3633 27.491 84.0522 29.3328 85.3082 30.6774Z" fill="#60269E"/>
<rect x="104.531" y="4.58594" width="3.73344" height="31.2766" fill="#60269E"/>
<path fill-rule="evenodd" clip-rule="evenodd" d="M120.973 14.5938C123.688 14.5938 126.151 15.6654 127.906 17.6107C129.662 19.5581 130.641 22.311 130.665 25.3579C130.667 25.7714 130.645 26.1846 130.6 26.5956L130.576 26.8071H114.507C114.749 28.7091 115.524 30.2769 116.756 31.3589C117.965 32.4202 119.556 32.9803 121.356 32.9803C123.656 32.9803 125.805 32.1159 127.57 30.4801L127.757 30.3068L129.746 32.8761L129.591 33.0257C127.304 35.2474 124.624 36.2788 121.165 36.2788C115.035 36.2788 110.754 31.8271 110.754 25.4487C110.754 22.3832 111.8 19.5932 113.661 17.6334C115.522 15.6737 118.124 14.5938 120.973 14.5938ZM125.018 19.5695C123.945 18.4999 122.523 17.9336 120.908 17.9336C119.186 17.9336 117.68 18.5174 116.554 19.619C115.523 20.6288 114.835 22.0449 114.555 23.7231H126.93C126.703 22.0243 126.045 20.5927 125.018 19.5695Z" fill="#60269E"/>
<path fill-rule="evenodd" clip-rule="evenodd" d="M31.2762 19.3242C29.803 17.8985 27.9221 16.7958 25.6877 16.047C25.0666 15.8372 24.4246 15.6558 23.7619 15.5029C24.7284 12.3419 24.9123 9.51121 24.3065 7.06826C23.2896 3.04123 19.7626 0.167492 15.6387 0.00582749C12.0609 -0.122866 8.74547 1.88911 7.18759 5.13448C5.92273 7.789 5.88932 10.7466 5.85979 13.3598L5.85944 13.3911V13.4508C5.84411 15.1099 5.85433 16.7547 5.88396 18.4046C4.11854 19.4445 2.81899 20.5482 1.84127 21.836C0.319 23.8418 -0.305232 26.2446 0.141232 28.4284C0.517201 30.285 1.66248 31.8228 3.2062 32.5305C4.25646 33.016 5.34146 33.0777 6.32225 32.9625C6.00962 35.8231 4.77342 36.9463 4.5507 37.1273L7.2775 39.2C7.69296 38.7421 8.05463 38.2375 8.35534 37.6962C9.24725 36.107 9.72232 34.1876 9.77034 31.975C9.98557 31.8866 10.1994 31.7943 10.4119 31.6983C11.7533 32.8397 13.2546 33.7755 14.8674 34.4756C16.8196 35.3352 18.8879 35.8979 21.0045 36.145C25.0461 36.6099 28.9673 35.5669 31.4938 33.3534C33.3246 31.7498 34.3667 29.4796 34.428 26.9616C34.4934 24.1504 33.3164 21.2929 31.2762 19.3242ZM31.0507 26.8817C31.0242 27.9792 30.6942 29.5479 29.2771 30.7904C27.1316 32.6707 23.7949 33.0451 21.3899 32.7684C18.5293 32.4393 15.7576 31.4004 13.6172 29.8935C14.9366 28.9904 16.159 27.9514 17.2645 26.7932C19.41 24.5478 21.1928 21.8353 22.5608 18.7207C24.694 19.1537 27.1276 20.0291 28.941 21.7798C30.3132 23.1146 31.0766 24.9609 31.0507 26.8817ZM3.45239 27.7449C3.60972 28.5184 4.06538 29.1819 4.61299 29.4349H4.61503C5.02982 29.6273 5.58867 29.6551 6.30485 29.5193C6.18736 27.0794 6.07907 24.7321 5.99835 22.4219C5.4494 22.8522 4.95588 23.3498 4.52921 23.9031C3.61177 25.1086 3.20923 26.5445 3.45239 27.7449ZM9.24027 13.4828V13.4231C9.26274 11.046 9.28624 8.58864 10.2313 6.60548C11.178 4.63959 13.1604 3.39431 15.3304 3.40238H15.5224C18.1356 3.51187 20.37 5.32961 21.0251 7.8789C21.5093 9.83943 21.2907 12.2238 20.3753 14.9845C20.1029 14.9633 19.826 14.9458 19.5447 14.9321C16.0209 14.7843 12.507 15.4047 9.24333 16.7507C9.23209 15.6624 9.23107 14.5752 9.24231 13.4828H9.24027ZM9.3125 20.4329C9.38299 22.9993 9.4964 25.6006 9.62717 28.3049H9.62921C11.5671 27.3215 13.3235 26.0113 14.8223 24.4311C16.4712 22.7092 17.875 20.6592 19.0111 18.3181C15.7489 18.2276 12.4265 18.9538 9.3125 20.4329Z" fill="#60269E"/>
</svg>
