<svg width="91" height="66" viewBox="0 0 91 66" fill="none" xmlns="http://www.w3.org/2000/svg">
<g clip-path="url(#clip0_1251_3891)">
<path d="M50.2969 58.9688V20.8125C50.3031 15.2946 52.4978 10.0045 56.3996 6.10274C60.3013 2.20098 65.5915 0.00623892 71.1094 0C72.0293 -8.043e-08 72.9116 0.365451 73.5621 1.01597C74.2127 1.66649 74.5781 2.54878 74.5781 3.46875C74.5781 4.38872 74.2127 5.27101 73.5621 5.92153C72.9116 6.57205 72.0293 6.9375 71.1094 6.9375C67.4308 6.94164 63.904 8.40479 61.3028 11.0059C58.7017 13.6071 57.2385 17.1339 57.2344 20.8125V24.2812H83.25C85.0893 24.2833 86.8526 25.0149 88.1532 26.3155C89.4538 27.6161 90.1854 29.3795 90.1875 31.2187V58.9687C90.1854 60.808 89.4538 62.5714 88.1532 63.872C86.8527 65.1726 85.0893 65.9041 83.25 65.9063H57.2344C55.3951 65.9041 53.6317 65.1726 52.3311 63.872C51.0306 62.5714 50.299 60.808 50.2969 58.9688ZM6.9375 65.9063H32.9531C34.7924 65.9042 36.5558 65.1726 37.8563 63.872C39.1569 62.5714 39.8885 60.808 39.8906 58.9688V31.2188C39.8885 29.3795 39.1569 27.6161 37.8563 26.3155C36.5558 25.0149 34.7924 24.2834 32.9531 24.2812H6.9375V20.8125C6.94163 17.1339 8.40479 13.6071 11.0059 11.006C13.6071 8.40479 17.1339 6.94164 20.8125 6.93751C21.7325 6.93751 22.6147 6.57205 23.2653 5.92154C23.9158 5.27102 24.2812 4.38873 24.2812 3.46876C24.2812 2.54879 23.9158 1.66649 23.2653 1.01598C22.6147 0.365456 21.7325 4.31666e-06 20.8125 4.39709e-06C15.2946 0.00624331 10.0045 2.20099 6.10274 6.10274C2.20099 10.0045 0.00623795 15.2946 0 20.8125L3.3357e-06 58.9688C0.00210702 60.8081 0.733697 62.5714 2.03428 63.872C3.33485 65.1726 5.09821 65.9042 6.9375 65.9063Z" fill="#FBF0FA"/>
</g>
<defs>
<clipPath id="clip0_1251_3891">
<rect width="91" height="66" fill="white"/>
</clipPath>
</defs>
</svg>
