<svg width="173" height="53" viewBox="0 0 173 53" fill="none" xmlns="http://www.w3.org/2000/svg">
<g clip-path="url(#clip0_1229_4192)">
<path d="M166.453 0H6.40204C4.70412 0 3.07573 0.686049 1.87512 1.90722C0.674499 3.1284 0 4.78467 0 6.51167H0C0 4.78467 0.674499 3.1284 1.87512 1.90722C3.07573 0.686049 4.70412 0 6.40204 0L166.453 0C168.151 0 169.779 0.686049 170.98 1.90722C172.181 3.1284 172.855 4.78467 172.855 6.51167C172.855 4.78467 172.181 3.1284 170.98 1.90722C169.779 0.686049 168.151 0 166.453 0V0Z" fill="#FCF0D8"/>
<path d="M166.453 0H6.40204C4.70412 0 3.07573 0.686049 1.87512 1.90722C0.674499 3.1284 0 4.78467 0 6.51167L0 45.5817C0 47.3087 0.674499 48.9649 1.87512 50.1861C3.07573 51.4073 4.70412 52.0933 6.40204 52.0933H166.453C168.151 52.0933 169.779 51.4073 170.98 50.1861C172.181 48.9649 172.855 47.3087 172.855 45.5817V45.5817V6.51167C172.855 4.78467 172.181 3.1284 170.98 1.90722C169.779 0.686049 168.151 0 166.453 0V0ZM171.831 45.5817C171.831 47.0324 171.264 48.4236 170.256 49.4494C169.247 50.4752 167.879 51.0515 166.453 51.0515H6.40204C4.97578 51.0515 3.60794 50.4752 2.59942 49.4494C1.59091 48.4236 1.02433 47.0324 1.02433 45.5817V6.51167C1.02433 5.06099 1.59091 3.66972 2.59942 2.64393C3.60794 1.61815 4.97578 1.04187 6.40204 1.04187H166.453C167.879 1.04187 169.247 1.61815 170.256 2.64393C171.264 3.66972 171.831 5.06099 171.831 6.51167V45.5817Z" fill="#FCF0D8"/>
<path d="M56.9396 17.2297C57.4788 17.2509 58.0162 17.1563 58.517 16.9521C59.0178 16.7479 59.4707 16.4387 59.8462 16.0446C60.1849 15.6858 60.4482 15.2606 60.6199 14.7948C60.7916 14.3291 60.8682 13.8326 60.8449 13.3357C60.8419 13.1301 60.8205 12.9253 60.7809 12.7236V12.6195H56.8116V13.8176H59.5901C59.5448 14.3289 59.333 14.8101 58.9883 15.1851C58.72 15.4577 58.4001 15.6721 58.048 15.8154C57.6958 15.9586 57.3188 16.0277 56.9396 16.0185C56.5565 16.0206 56.1769 15.9438 55.8237 15.7928C55.4705 15.6418 55.1509 15.4197 54.8842 15.1399C54.6175 14.8602 54.4092 14.5284 54.2717 14.1647C54.1343 13.8009 54.0705 13.4126 54.0843 13.0232C54.0705 12.6337 54.1343 12.2455 54.2717 11.8817C54.4092 11.5179 54.6175 11.1862 54.8842 10.9064C55.1509 10.6266 55.4705 10.4046 55.8237 10.2536C56.1769 10.1026 56.5565 10.0258 56.9396 10.0278C57.3106 10.0163 57.6793 10.09 58.0185 10.2433C58.3576 10.3966 58.6585 10.6256 58.8987 10.9134L58.9883 11.0176L59.8334 10.145L59.7694 10.0539C59.4174 9.65678 58.9789 9.34903 58.4889 9.15525C57.9768 8.92594 57.4224 8.81049 56.8628 8.81664C56.3253 8.82174 55.7941 8.93469 55.2997 9.14901C54.8052 9.36334 54.3572 9.67483 53.9813 10.0656C53.6054 10.4564 53.309 10.9188 53.1092 11.4263C52.9094 11.9339 52.81 12.4765 52.8167 13.0232C52.8099 13.5764 52.9118 14.1255 53.1164 14.6381C53.321 15.1508 53.6242 15.6167 54.0083 16.0085C54.3923 16.4004 54.8494 16.7102 55.3528 16.9199C55.8562 17.1296 56.3957 17.235 56.9396 17.2297V17.2297Z" fill="#FCF0D8"/>
<path d="M66.7484 15.8366H63.2529V13.6226H66.4027V12.4245H63.2529V10.2105H66.7484V8.98633H61.998V17.0608H66.7484V15.8366Z" fill="#FCF0D8"/>
<path d="M70.9087 17.0608V10.2105H73.047V8.98633H67.5156V10.2105H69.6667V17.0608H70.9087Z" fill="#FCF0D8"/>
<path d="M77.8611 8.98633H76.6191V17.0608H77.8611V8.98633Z" fill="#FCF0D8"/>
<path d="M82.2407 17.0608V10.2105H84.379V8.98633H78.8477V10.2105H80.9987V17.0608H82.2407Z" fill="#FCF0D8"/>
<path d="M91.4341 17.2292C91.9761 17.2454 92.5153 17.1446 93.0163 16.9336C93.5172 16.7226 93.9686 16.4062 94.3407 16.005C94.722 15.6131 95.0217 15.147 95.2219 14.6345C95.4221 14.1221 95.5186 13.5739 95.5058 13.0227C95.5165 12.4717 95.4189 11.9241 95.2188 11.412C95.0187 10.8999 94.7202 10.4336 94.3407 10.0403C93.9686 9.63918 93.5172 9.3227 93.0163 9.11171C92.5153 8.90071 91.9761 8.79998 91.4341 8.81613C90.8922 8.79998 90.353 8.90071 89.852 9.11171C89.3511 9.3227 88.8997 9.63918 88.5276 10.0403C88.1463 10.4323 87.8466 10.8984 87.6464 11.4108C87.4462 11.9232 87.3496 12.4714 87.3625 13.0227C87.3496 13.5739 87.4462 14.1221 87.6464 14.6345C87.8466 15.147 88.1463 15.6131 88.5276 16.005C88.8997 16.4062 89.3511 16.7226 89.852 16.9336C90.353 17.1446 90.8922 17.2454 91.4341 17.2292V17.2292ZM89.4367 10.8738C89.6985 10.6061 90.0097 10.3936 90.3525 10.2486C90.6953 10.1036 91.0629 10.0289 91.4341 10.0289C91.8054 10.0289 92.173 10.1036 92.5158 10.2486C92.8586 10.3936 93.1698 10.6061 93.4316 10.8738C93.7027 11.1579 93.9149 11.4945 94.0557 11.8637C94.1964 12.2328 94.2629 12.6269 94.251 13.0227C94.268 13.4157 94.2076 13.8082 94.0735 14.1772C93.9394 14.5462 93.7342 14.8842 93.47 15.1715C93.2082 15.4393 92.897 15.6518 92.5542 15.7968C92.2114 15.9418 91.8438 16.0164 91.4726 16.0164C91.1013 16.0164 90.7337 15.9418 90.3909 15.7968C90.0481 15.6518 89.7369 15.4393 89.4751 15.1715C89.1971 14.8907 88.9778 14.5555 88.8304 14.1862C88.6829 13.817 88.6104 13.4212 88.6172 13.0227C88.6054 12.6269 88.6718 12.2328 88.8126 11.8637C88.9534 11.4945 89.1656 11.1579 89.4367 10.8738Z" fill="#FCF0D8"/>
<path d="M97.8748 12.0598L97.8492 10.9659L101.55 16.9957L101.588 17.0608H102.817V8.98633H101.575V13.6878L101.601 14.7947L98.0413 8.98633H96.6328V17.0608H97.8748V12.0598Z" fill="#FCF0D8"/>
<path d="M130.359 22.7904H124.623V39.0695H127.017V32.8965H130.359C131.042 32.9463 131.727 32.8527 132.372 32.6213C133.017 32.39 133.609 32.0259 134.11 31.5518C134.61 31.0777 135.01 30.5038 135.283 29.8657C135.556 29.2277 135.697 28.5393 135.697 27.8434C135.697 27.1475 135.556 26.4591 135.283 25.8211C135.01 25.1831 134.61 24.6091 134.11 24.135C133.609 23.6609 133.017 23.2969 132.372 23.0655C131.727 22.8342 131.042 22.7405 130.359 22.7904V22.7904ZM130.359 30.6044H127.017V25.0564H130.41C131.137 25.0564 131.834 25.3501 132.348 25.8727C132.862 26.3954 133.151 27.1043 133.151 27.8434C133.151 28.5826 132.862 29.2915 132.348 29.8141C131.834 30.3368 131.137 30.6304 130.41 30.6304L130.359 30.6044Z" fill="#FCF0D8"/>
<path d="M119.142 31.8555C118.808 30.8563 118.184 29.9838 117.351 29.3535C116.519 28.7233 115.518 28.365 114.481 28.3262C113.781 28.3248 113.088 28.4695 112.444 28.7514C111.801 29.0334 111.222 29.4465 110.742 29.9652C110.262 30.484 109.891 31.0974 109.654 31.7674C109.416 32.4375 109.316 33.1501 109.36 33.8611C109.349 35.0499 109.716 36.2105 110.407 37.1694C111.098 38.1283 112.076 38.8341 113.193 39.1813C114.311 39.5286 115.51 39.4987 116.61 39.0961C117.709 38.6935 118.652 37.9398 119.296 36.9476L117.439 35.6453C117.162 36.1145 116.77 36.502 116.3 36.7692C115.831 37.0365 115.301 37.1743 114.763 37.169C114.208 37.1923 113.659 37.0443 113.188 36.7445C112.718 36.4447 112.347 36.007 112.125 35.489L119.411 32.4285L119.142 31.8555ZM111.716 33.7048C111.69 33.3009 111.743 32.8959 111.874 32.5135C112.004 32.131 112.208 31.779 112.474 31.478C112.74 31.1771 113.063 30.9333 113.423 30.761C113.783 30.5888 114.173 30.4915 114.571 30.475C114.982 30.4483 115.392 30.5451 115.749 30.7535C116.107 30.962 116.396 31.2727 116.581 31.6471L111.716 33.7048Z" fill="#FCF0D8"/>
<path d="M145.185 28.2996C144.313 28.2449 143.444 28.4514 142.686 28.8935C141.929 29.3356 141.315 29.9939 140.921 30.7871L143.034 31.6857C143.247 31.2942 143.568 30.974 143.956 30.7637C144.345 30.5534 144.785 30.462 145.223 30.5006C145.527 30.4645 145.835 30.4903 146.129 30.5765C146.423 30.6628 146.697 30.8077 146.936 31.0029C147.174 31.1981 147.372 31.4396 147.518 31.7133C147.663 31.9871 147.754 32.2876 147.784 32.5973V32.7536C147.014 32.342 146.157 32.1274 145.287 32.1285C143.008 32.1285 140.678 33.4308 140.678 35.8011C140.7 36.3049 140.822 36.7989 141.036 37.2539C141.25 37.7089 141.552 38.1154 141.923 38.4495C142.295 38.7836 142.728 39.0383 143.198 39.1986C143.668 39.3589 144.165 39.4214 144.66 39.3825C145.255 39.4042 145.845 39.2665 146.37 38.983C146.896 38.6996 147.34 38.2804 147.656 37.7676H147.733V39.0699H150.038V32.8057C150.038 29.9536 147.912 28.2996 145.185 28.2996ZM144.89 37.2206C144.109 37.2206 143.021 36.8169 143.021 35.8401C143.021 34.5378 144.378 34.095 145.582 34.095C146.342 34.0759 147.094 34.2648 147.758 34.642C147.671 35.3533 147.332 36.0078 146.803 36.4826C146.275 36.9574 145.595 37.2198 144.89 37.2206Z" fill="#FCF0D8"/>
<path d="M155.698 35.709H155.621L152.779 28.6504H150.205L154.469 38.5221L152.036 44.0049H154.533L161.101 28.6504H158.438L155.698 35.709Z" fill="#FCF0D8"/>
<path d="M139.322 22.791H136.928V39.0702H139.322V22.791Z" fill="#FCF0D8"/>
<path d="M61.1266 30.0308V32.375H66.658C66.5713 33.4791 66.12 34.521 65.3776 35.3313C64.8227 35.9063 64.1554 36.3564 63.4187 36.6525C62.682 36.9487 61.8924 37.0842 61.101 37.0504C59.471 37.0504 57.9077 36.3918 56.7552 35.2194C55.6026 34.0471 54.9551 32.4571 54.9551 30.7992C54.9551 29.1413 55.6026 27.5512 56.7552 26.3789C57.9077 25.2066 59.471 24.548 61.101 24.548C62.6637 24.5243 64.1726 25.1279 65.3007 26.228L66.9269 24.574C66.1637 23.8063 65.2576 23.2012 64.2616 22.7942C63.2657 22.3872 62.1998 22.1865 61.1266 22.2038C59.9883 22.1587 58.8528 22.3479 57.7881 22.7598C56.7234 23.1718 55.7514 23.7982 54.9304 24.6014C54.1094 25.4046 53.4562 26.3681 53.0101 27.4342C52.564 28.5003 52.334 29.647 52.334 30.8057C52.334 31.9643 52.564 33.1111 53.0101 34.1772C53.4562 35.2433 54.1094 36.2068 54.9304 37.01C55.7514 37.8132 56.7234 38.4396 57.7881 38.8515C58.8528 39.2635 59.9883 39.4527 61.1266 39.4076C62.2219 39.4521 63.3141 39.2604 64.3314 38.8452C65.3487 38.43 66.2681 37.8006 67.0293 36.9983C68.3739 35.4959 69.0903 33.52 69.0267 31.4894C69.0313 31.0007 68.9928 30.5125 68.9115 30.0308H61.1266Z" fill="#FCF0D8"/>
<path d="M75.3128 28.3252C74.234 28.3278 73.1802 28.6557 72.2846 29.2675C71.389 29.8792 70.6919 30.7474 70.2814 31.7621C69.8709 32.7768 69.7655 33.8926 69.9784 34.9683C70.1914 36.044 70.7131 37.0313 71.4778 37.8053C72.2424 38.5794 73.2155 39.1055 74.2741 39.317C75.3326 39.5285 76.4291 39.4161 77.4248 38.9938C78.4205 38.5715 79.2708 37.8584 79.868 36.9446C80.4653 36.0308 80.7827 34.9574 80.7802 33.8601C80.7906 33.1281 80.6561 32.4015 80.3847 31.7235C80.1133 31.0454 79.7106 30.4299 79.2005 29.9134C78.6903 29.397 78.0832 28.9902 77.4154 28.7174C76.7475 28.4445 76.0324 28.3112 75.3128 28.3252V28.3252ZM75.3128 37.2202C74.6516 37.2672 73.9917 37.1108 73.419 36.7714C72.8464 36.4319 72.3873 35.9251 72.1016 35.3167C71.8159 34.7084 71.7167 34.0267 71.8169 33.3602C71.9171 32.6938 72.2121 32.0734 72.6636 31.5798C73.1151 31.0862 73.7021 30.7421 74.3484 30.5923C74.9946 30.4425 75.6703 30.4939 76.2874 30.7399C76.9046 30.9858 77.4348 31.4149 77.809 31.9714C78.1832 32.5278 78.3842 33.1859 78.3858 33.8601C78.4064 34.2873 78.3427 34.7144 78.1985 35.1161C78.0543 35.5179 77.8324 35.8862 77.546 36.1994C77.2596 36.5125 76.9145 36.7642 76.5309 36.9395C76.1474 37.1148 75.7332 37.2102 75.3128 37.2202V37.2202Z" fill="#FCF0D8"/>
<path d="M108.195 22.791H105.801V39.0702H108.195V22.791Z" fill="#FCF0D8"/>
<path d="M101.882 29.5627H101.793C101.429 29.1602 100.985 28.8415 100.491 28.6281C99.9958 28.4147 99.4619 28.3115 98.9247 28.3255C97.5255 28.3945 96.206 29.0084 95.2397 30.0401C94.2734 31.0717 93.7344 32.442 93.7344 33.8669C93.7344 35.2918 94.2734 36.662 95.2397 37.6937C96.206 38.7253 97.5255 39.3393 98.9247 39.4083C99.4676 39.4194 100.006 39.3084 100.502 39.0833C100.998 38.8581 101.439 38.5244 101.793 38.106H101.882V38.9004C101.882 41.0232 100.769 42.1562 98.9759 42.1562C98.3771 42.1429 97.7957 41.9488 97.3056 41.5986C96.8154 41.2485 96.4386 40.7581 96.2231 40.1897L94.1488 41.0623C94.5323 42.042 95.1991 42.8802 96.061 43.4662C96.9229 44.0522 97.9393 44.3583 98.9759 44.3442C101.78 44.3442 104.098 42.6642 104.098 38.5748V28.651H101.882V29.5627ZM99.1296 37.2204C98.2907 37.1672 97.5032 36.7907 96.9277 36.1677C96.3521 35.5446 96.0317 34.7218 96.0317 33.8669C96.0317 33.012 96.3521 32.1892 96.9277 31.5661C97.5032 30.9431 98.2907 30.5666 99.1296 30.5134C99.5396 30.5314 99.9419 30.6331 100.313 30.8124C100.683 30.9918 101.014 31.2452 101.287 31.5574C101.559 31.8697 101.767 32.2345 101.898 32.6301C102.029 33.0258 102.08 33.4442 102.049 33.8604C102.084 34.278 102.035 34.6985 101.906 35.0965C101.776 35.4944 101.569 35.8616 101.296 36.1757C101.023 36.4897 100.69 36.7443 100.318 36.9238C99.9457 37.1034 99.5414 37.2043 99.1296 37.2204V37.2204Z" fill="#FCF0D8"/>
<path d="M87.2464 28.3252C86.1676 28.3278 85.1138 28.6557 84.2182 29.2675C83.3226 29.8792 82.6255 30.7474 82.215 31.7621C81.8045 32.7768 81.6991 33.8926 81.912 34.9683C82.125 36.044 82.6467 37.0313 83.4113 37.8053C84.176 38.5794 85.1491 39.1055 86.2077 39.317C87.2662 39.5285 88.3627 39.4161 89.3584 38.9938C90.3541 38.5715 91.2044 37.8584 91.8016 36.9446C92.3989 36.0308 92.7163 34.9574 92.7138 33.8601C92.7242 33.1281 92.5897 32.4015 92.3183 31.7235C92.0469 31.0454 91.6442 30.4299 91.1341 29.9134C90.6239 29.397 90.0168 28.9902 89.349 28.7174C88.6811 28.4445 87.966 28.3112 87.2464 28.3252ZM87.7181 37.1648C87.0569 37.2118 86.397 37.0555 85.8243 36.716C85.2516 36.3766 84.7926 35.8697 84.5068 35.2614C84.2211 34.653 84.1219 33.9713 84.2222 33.3049C84.3224 32.6385 84.6174 32.0181 85.0689 31.5245C85.5203 31.0308 86.1074 30.6867 86.7536 30.5369C87.3999 30.3872 88.0755 30.4386 88.6927 30.6845C89.3099 30.9305 89.84 31.3596 90.2143 31.916C90.5885 32.4725 90.7895 33.1306 90.7911 33.8048C90.8117 34.232 90.748 34.659 90.6038 35.0608C90.4596 35.4625 90.2377 35.8309 89.9513 36.144C89.6649 36.4572 89.3197 36.7088 88.9362 36.8841C88.5527 37.0595 88.1385 37.1549 87.7181 37.1648Z" fill="#FCF0D8"/>
<path d="M13.3667 9.81968C12.9586 10.3329 12.7572 10.9845 12.8034 11.6429V40.4506C12.7598 41.1152 12.9761 41.7705 13.4051 42.2738L13.4948 42.378L29.3206 26.2421V25.8514L13.4564 9.72852L13.3667 9.81968Z" fill="url(#paint0_linear_1229_4192)"/>
<path d="M34.57 31.6206L29.3203 26.242V25.8513L34.57 20.4727L34.6852 20.5508L40.972 24.1713C42.7646 25.2001 42.7646 26.8932 40.972 27.935L34.7108 31.5555L34.57 31.6206Z" fill="url(#paint1_linear_1229_4192)"/>
<path d="M34.7244 31.5557L29.3211 26.0469L13.3672 42.2739C13.729 42.6015 14.1921 42.79 14.6762 42.8066C15.1603 42.8233 15.6349 42.6671 16.0176 42.3651L34.7244 31.5557" fill="url(#paint2_linear_1229_4192)"/>
<path d="M34.7244 20.5512L16.0176 9.74181C15.6374 9.43565 15.1632 9.27565 14.6784 9.28994C14.1937 9.30424 13.7294 9.4919 13.3672 9.81995L29.3211 26.047L34.7244 20.5512Z" fill="url(#paint3_linear_1229_4192)"/>
<path opacity="0.2" d="M34.5708 31.4258L16.0176 42.17C15.6488 42.4532 15.1993 42.6063 14.7372 42.6063C14.2751 42.6063 13.8256 42.4532 13.4568 42.17V42.17L13.3672 42.2612L13.4568 42.3654C13.8256 42.6485 14.2751 42.8017 14.7372 42.8017C15.1993 42.8017 15.6488 42.6485 16.0176 42.3654L34.7244 31.556L34.5708 31.4258Z" fill="black"/>
<path opacity="0.12" d="M13.3676 42.0921C12.9563 41.5756 12.7548 40.9186 12.8042 40.2559V40.4512C12.7607 41.1159 12.9769 41.7712 13.406 42.2745L13.4956 42.1833L13.3676 42.0921Z" fill="black"/>
<path opacity="0.12" d="M40.9724 27.7399L34.5703 31.4255L34.6855 31.5557L40.9724 27.9222C41.3435 27.7626 41.6654 27.5042 41.9042 27.1742C42.1431 26.8441 42.29 26.4547 42.3296 26.0469C42.2495 26.4175 42.085 26.7638 41.8493 27.0578C41.6135 27.3519 41.3132 27.5855 40.9724 27.7399Z" fill="black"/>
</g>
<defs>
<linearGradient id="paint0_linear_1229_4192" x1="27.9122" y1="11.3434" x2="6.06217" y2="32.8256" gradientUnits="userSpaceOnUse">
<stop stop-color="#00A0FF"/>
<stop offset="0.01" stop-color="#00A1FF"/>
<stop offset="0.26" stop-color="#00BEFF"/>
<stop offset="0.51" stop-color="#00D2FF"/>
<stop offset="0.76" stop-color="#00DFFF"/>
<stop offset="1" stop-color="#00E3FF"/>
</linearGradient>
<linearGradient id="paint1_linear_1229_4192" x1="43.3152" y1="26.0466" x2="12.3421" y2="26.0466" gradientUnits="userSpaceOnUse">
<stop stop-color="#FFE000"/>
<stop offset="0.41" stop-color="#FFBD00"/>
<stop offset="0.78" stop-color="#FFA500"/>
<stop offset="1" stop-color="#FF9C00"/>
</linearGradient>
<linearGradient id="paint2_linear_1229_4192" x1="31.7923" y1="29.0422" x2="2.15543" y2="58.1801" gradientUnits="userSpaceOnUse">
<stop stop-color="#FF3A44"/>
<stop offset="1" stop-color="#C31162"/>
</linearGradient>
<linearGradient id="paint3_linear_1229_4192" x1="9.3467" y1="0.234778" x2="22.5765" y2="13.2419" gradientUnits="userSpaceOnUse">
<stop stop-color="#32A071"/>
<stop offset="0.07" stop-color="#2DA771"/>
<stop offset="0.48" stop-color="#15CF74"/>
<stop offset="0.8" stop-color="#06E775"/>
<stop offset="1" stop-color="#00F076"/>
</linearGradient>
<clipPath id="clip0_1229_4192">
<rect width="172.855" height="52.0933" fill="white"/>
</clipPath>
</defs>
</svg>
