<svg width="24" height="24" viewBox="0 0 24 24" fill="none" xmlns="http://www.w3.org/2000/svg">
<path d="M11 0.375C4.92485 0.375 0 5.29985 0 11.375C0 17.4501 4.92485 22.375 11 22.375C17.0751 22.375 22 17.4501 22 11.375C22 5.29985 17.0751 0.375 11 0.375ZM16.0987 7.85589C15.9331 9.59522 15.2169 13.8162 14.8523 15.7643C14.6981 16.5887 14.3944 16.8651 14.1005 16.892C13.4618 16.9509 12.9767 16.4699 12.358 16.0644C11.3898 15.4297 10.8429 15.0347 9.90312 14.4154C8.81712 13.6997 9.52113 13.3066 10.1401 12.6634C10.3021 12.4952 13.1166 9.93511 13.171 9.7029C13.1779 9.67386 13.1844 9.56532 13.1199 9.50845C13.0554 9.45146 12.9607 9.47076 12.8921 9.48622C12.795 9.50826 11.2484 10.5306 8.25226 12.5531C7.81329 12.8544 7.41567 13.0013 7.05938 12.9936C6.66662 12.9852 5.91112 12.7716 5.34946 12.589C4.66058 12.365 4.11307 12.2467 4.16075 11.8664C4.18559 11.6683 4.45837 11.4657 4.9791 11.2587C8.18584 9.86159 10.3242 8.94052 11.394 8.49544C14.4488 7.22481 15.0836 7.0041 15.4974 6.99674C15.5884 6.99522 15.7918 7.01776 15.9236 7.12469C16.0113 7.20088 16.0672 7.30719 16.0802 7.42259C16.1025 7.56588 16.1087 7.71122 16.0987 7.85589Z" fill="#FCF0D8"/>
</svg>
