<svg width="22" height="18" viewBox="0 0 22 18" fill="none" xmlns="http://www.w3.org/2000/svg">
<path d="M6.87925 17.7743C15.1349 17.7743 19.649 10.9353 19.649 5.00454C19.649 4.81029 19.6446 4.61691 19.6359 4.42441C20.5142 3.78909 21.2724 3.00243 21.875 2.10129C21.0559 2.46419 20.187 2.70221 19.2972 2.80741C20.2342 2.24638 20.9357 1.36429 21.2712 0.325039C20.3902 0.847627 19.4264 1.21604 18.4214 1.41441C17.7447 0.695046 16.8499 0.218702 15.8753 0.0590746C14.9007 -0.100552 13.9006 0.065435 13.0299 0.531357C12.1591 0.997279 11.4661 1.73717 11.0581 2.63656C10.6502 3.53595 10.55 4.54471 10.773 5.50679C8.98858 5.41756 7.24286 4.95406 5.64919 4.14638C4.05553 3.33869 2.64954 2.20487 1.5225 0.818539C0.948157 1.80645 0.772138 2.9762 1.03032 4.08938C1.28849 5.20257 1.96144 6.17542 2.912 6.80966C2.19924 6.78793 1.50214 6.59528 0.879375 6.24791C0.879375 6.26716 0.879375 6.28554 0.879375 6.30566C0.879659 7.34186 1.23835 8.34605 1.89462 9.14792C2.55089 9.9498 3.46433 10.5 4.48 10.7052C3.81888 10.8848 3.12547 10.9112 2.45262 10.7822C2.7393 11.674 3.29761 12.4539 4.04944 13.0128C4.80127 13.5716 5.709 13.8815 6.64562 13.8989C5.05643 15.148 3.09319 15.826 1.07187 15.8239C0.713611 15.8229 0.35571 15.801 0 15.7583C2.05235 17.0756 4.44052 17.7742 6.87925 17.7708" fill="#FCF0D8"/>
</svg>
